<?xml version="1.0" encoding="utf-8"?>
<!-- Generator: Adobe Illustrator 26.5.0, SVG Export Plug-In . SVG Version: 6.00 Build 0)  -->
<svg version="1.1" id="Layer_1" xmlns="http://www.w3.org/2000/svg" xmlns:xlink="http://www.w3.org/1999/xlink" x="0px" y="0px"
	 viewBox="0 0 1280 1024" style="enable-background:new 0 0 1280 1024;" xml:space="preserve">
<style type="text/css">
	.st0{fill:#414141;}
</style>
<g>
	<path class="st0" d="M639.41,556c0.98-1.38,1.69-2.75,2.73-3.79c35.51-35.56,71.06-71.08,106.55-106.65
		c3.28-3.29,6.87-5.38,11.62-4.67c9.07,1.35,13.25,12.07,7.52,19.3c-0.85,1.07-1.87,2.01-2.84,2.98
		c-38.62,38.62-77.23,77.24-115.86,115.86c-7.38,7.38-13.41,7.35-20.83-0.07c-38.8-38.79-77.58-77.61-116.41-116.36
		c-3.39-3.38-5.54-7.08-4.69-11.97c1.54-8.88,12.07-12.87,19.18-7.28c1.17,0.92,2.19,2.04,3.24,3.1
		c35.36,35.35,70.72,70.71,106.08,106.06C636.65,553.44,637.65,554.34,639.41,556z"/>
</g>
</svg>
