<?xml version="1.0" encoding="utf-8"?>
<!-- Generator: Adobe Illustrator 27.0.0, SVG Export Plug-In . SVG Version: 6.00 Build 0)  -->
<svg version="1.1" id="Layer_1" xmlns="http://www.w3.org/2000/svg" xmlns:xlink="http://www.w3.org/1999/xlink" x="0px" y="0px"
	 viewBox="0 0 398.3 401.4" style="enable-background:new 0 0 398.3 401.4;" xml:space="preserve">
<style type="text/css">
	.st0{fill:#707070;}
</style>
<g>
	<path class="st0" d="M84.7,224.8c3.5,1.5,6.3,2.8,9.2,3.9c34,13.9,68,27.8,102,41.7c1.6,0.7,4,0.9,5.6,0.2
		c36.1-14.6,72.2-29.4,108.3-44.2c0.9-0.4,1.8-0.8,3.4-1.7c-13.1-4.4-25.5-8.5-38.2-12.8c1.2-3.8,2.4-7.3,3.7-11.1
		c1.5,0.4,2.8,0.7,4,1.1c15.7,5.2,31.5,10.3,47.1,15.8c2.7,1,5.5,3,7.3,5.2c5.4,6.6,10.3,13.5,15.3,20.3c3.8,5.1,2.8,8.6-3,11.1
		c-0.2,0.1-0.5,0.2-0.7,0.3c-4,1.7-9.4,2.5-11.5,5.5c-2,2.9-0.6,8.2-0.6,12.4c0,17.1-0.1,34.2,0.1,51.3c0,4.4-1.6,6.9-5.6,8.5
		c-42.8,17.4-85.5,35-128.3,52.3c-2.2,0.9-5.5,0.8-7.8-0.1c-42.9-17.4-85.8-35-128.7-52.5c-3.6-1.5-5.2-3.8-5.2-7.7
		c0.1-20.3,0-40.7,0.1-61c0-3.2-1-4.7-3.9-5.6c-3.3-1-6.5-2.5-9.7-3.9c-4.7-2-5.8-5.9-2.8-10c5.7-7.7,11.5-15.4,17.3-23
		c0.9-1.1,2.2-2.1,3.5-2.6c17.3-5.9,34.7-11.6,52.1-17.4c0.3-0.1,0.7,0,1.5-0.1c1.2,3.4,2.3,6.9,3.7,10.9
		C110.4,216.2,98,220.3,84.7,224.8z M192.8,296.4c-2.3,3-3.9,5.2-5.6,7.4c-3.7,4.8-5.1,5.2-10.8,2.9c-27.4-11.2-54.9-22.5-82.3-33.7
		c-6.9-2.8-13.8-5.6-21-8.5c0,18.4,0.1,36.2-0.1,54.1c0,2.7,0.9,3.8,3.3,4.8c30.3,12.3,60.7,24.8,91,37.2
		c8.4,3.4,16.8,6.8,25.4,10.4C192.8,346.2,192.8,321.8,192.8,296.4z M324.6,264.7c-1.8,0.7-3.3,1.3-4.8,1.9
		c-33,13.5-65.9,26.9-98.8,40.4c-5,2-6.7,1.5-9.9-2.7c-1.8-2.4-3.7-4.7-5.9-7.7c0,25.3,0,49.7,0,74.5c40-16.4,79.7-32.6,119.5-48.9
		C324.6,303.1,324.6,284.2,324.6,264.7z M58.7,245.6c40.4,16.5,80.4,32.9,120.3,49.2c3.6-4.8,7-9.3,10.5-14
		c-40.3-16.5-80.2-32.8-120.3-49.2C65.7,236.3,62.3,240.8,58.7,245.6z M208.5,280.8c2.8,3.7,5.5,7,7.7,10.5c1.9,3,3.6,3.4,6.9,2
		c36.8-15.2,73.7-30.2,110.6-45.3c1.8-0.7,3.5-1.5,5.5-2.4c-3.6-4.8-7-9.3-10.5-13.9C288.6,248,248.7,264.3,208.5,280.8z"/>
	<path class="st0" d="M194.7,89.9C208,73,226.8,66.2,247.2,62.7c3.3-0.6,6.1,0.4,7.3,3.7c6.1,16,8.9,32.4,5.3,49.5
		c-2.6,12.3-9.5,21.8-19.6,29c-12.1,8.5-25.7,13.1-40.2,15.1c-4.7,0.7-6.8-0.4-7.9-4.8c-1.2-5.3-4.2-6.7-9.2-7.4
		c-6-0.8-12-2.5-17.6-4.7c-19.6-7.9-29.3-23.1-28.9-45.6c0.1-7.2,1.6-14.3,2.7-21.5c0.6-3.6,3-5.7,6.8-5.5
		c13.1,0.6,25.8,3.2,37,10.3C187.1,83.3,190.6,86.7,194.7,89.9z M200.2,138.3c9.2-18.8,19.3-36.6,31.2-53.6c3.4,2.4,6.5,4.5,9.8,6.8
		c-11.7,17.3-22.1,34.9-31,53.8c35.8-8.9,47.2-33.6,34.5-69.8c-10.4,1.7-21.2,6-29.1,11C198,97.6,194.5,117.9,200.2,138.3z
		 M183.1,135.6c0.3-0.3,0.7-0.6,1-0.9c-9.2-10.7-18.4-21.4-27.9-32.4c2.2-2.4,4.8-5.2,7.8-8.5c7.4,7.9,14.4,15.5,21.6,23.2
		c0.4-2.7,0.4-5.4,1.3-7.7c2.3-6.3-0.7-10.5-4.9-14.4c-6.3-5.9-14.1-8.8-22.3-10.6c-3.2-0.7-6.5-1.1-9.6-1.6
		C143.5,112.7,155.2,131.2,183.1,135.6z"/>
	<path class="st0" d="M73.2,92.4c-0.2,3.3-1.8,5.6-4.9,6.8c-8.7,3.4-14.8,9.4-18.2,18.1c-1.2,3.1-3.4,4.9-6.8,5
		c-3.3,0-5.7-1.7-6.9-4.8c-3.4-8.7-9.4-14.8-18.1-18.2c-3.1-1.2-4.9-3.4-5-6.8s1.7-5.7,4.8-6.9c8.7-3.4,14.8-9.4,18.2-18.2
		c1.2-3.1,3.4-4.9,6.8-5s5.7,1.7,6.9,4.8c3.5,8.9,9.6,14.9,18.5,18.4C71.5,86.9,73,89.2,73.2,92.4z M43.3,83.2
		c-2.7,2.7-6.6,6.6-9.3,9.3c2.7,2.8,6.6,6.7,9.2,9.4c2.8-2.8,6.8-6.6,9.4-9.3C49.8,89.8,45.9,85.9,43.3,83.2z"/>
	<path class="st0" d="M354.5,134.4c3.4,0.2,5.8,1.7,6.9,4.6c3.5,9,9.7,15.2,18.7,18.7c2.9,1.1,4.5,3.5,4.6,6.7
		c0,3.2-1.6,5.6-4.5,6.7c-9,3.5-15.2,9.7-18.7,18.7c-1.1,2.9-3.5,4.5-6.7,4.6c-3.2,0-5.5-1.6-6.7-4.5c-3.5-9-9.7-15.2-18.7-18.7
		c-2.9-1.1-4.5-3.5-4.6-6.7c0-3.2,1.6-5.5,4.5-6.7c9-3.5,15.2-9.7,18.7-18.7C349.1,136.1,351.5,134.6,354.5,134.4z M354.6,173.8
		c2.9-2.8,6.9-6.7,9.6-9.2c-2.8-3-6.7-6.9-9.2-9.6c-2.9,2.9-6.9,6.8-9.6,9.4C348,167.1,351.8,171,354.6,173.8z"/>
	<path class="st0" d="M193.2,254c0-12,0-23.7,0-35.5c3.9,0,7.6,0,11.5,0c0,11.8,0,23.5,0,35.5C200.9,254,197.2,254,193.2,254z"/>
	<path class="st0" d="M198.5,26.4c-3.7,0.3-7,0.6-10.8,0.9c-0.6-3.8-1.2-7.5-1.8-11.8c4.3-0.4,8.3-0.7,12.6-1.1
		C198.5,18.6,198.5,22.4,198.5,26.4z"/>
	<path class="st0" d="M266.6,45.4c-3.1,2.7-5.9,5.1-8.8,7.6c-2.5-2.8-4.8-5.5-7.3-8.4c2-2.3,4.5-5.2,7.3-8.5
		C260.7,39.3,263.5,42.2,266.6,45.4z"/>
	<path class="st0" d="M147.3,164.2c-1.9,2.2-4.4,5.1-7.2,8.3c-3-3.1-5.8-6-8.8-9.2c2.9-2.5,5.7-5,8.7-7.7
		C142.5,158.5,144.8,161.2,147.3,164.2z"/>
	<path class="st0" d="M139.9,36.6c3.4-2.6,6.6-5.1,10.2-7.8c2.3,3.5,4.4,6.7,6.5,10.1c-3,2.3-5.7,4.4-8.8,6.7
		C145.2,42.7,142.7,39.8,139.9,36.6z"/>
	<path class="st0" d="M199.3,182.5c3.5-0.3,6.9-0.6,10.8-0.9c0.6,3.8,1.2,7.6,1.8,11.8c-4.3,0.4-8.3,0.7-12.6,1
		C199.3,190.3,199.3,186.5,199.3,182.5z"/>
	<path class="st0" d="M112.6,79.3c1.5-4.1,2.9-7.8,4.4-12c3.8,1.7,7.2,3.2,10.9,4.9c-1.3,3.5-2.5,6.9-3.8,10.4
		C120.3,81.5,116.8,80.5,112.6,79.3z"/>
	<path class="st0" d="M267,163.4c-3.2-2.8-6-5.2-9-7.8c2.2-3,4.3-5.8,6.7-8.9c3.2,2.1,6.3,4.1,10,6.5
		C272,156.5,269.6,159.8,267,163.4z"/>
	<path class="st0" d="M285.3,129.8c-1.6,4.2-3,7.9-4.5,12c-3.8-1.7-7.2-3.3-10.8-5c1.3-3.5,2.5-6.7,3.8-10.3
		C277.5,127.6,281.2,128.6,285.3,129.8z"/>
	<path class="st0" d="M173.8,190.9c1.2-4.1,2.2-7.7,3.3-11.5c3.6,0.8,7,1.5,10.8,2.3c-0.5,3.8-1,7.5-1.6,11.8
		C182.1,192.6,178.2,191.8,173.8,190.9z"/>
	<path class="st0" d="M121.7,115.7c0.8,3.7,1.6,7,2.4,10.8c-3.7,1.1-7.3,2.2-11.5,3.5c-0.9-4.2-1.8-8.1-2.7-12.4
		C114,116.9,117.6,116.4,121.7,115.7z"/>
	<path class="st0" d="M161.7,186.4c-3.9-2.1-7.4-4-11.3-6.2c2.3-3.5,4.3-6.7,6.5-10.1c3.3,1.8,6.3,3.4,9.7,5.3
		C165,179,163.5,182.4,161.7,186.4z"/>
	<path class="st0" d="M231.4,175.4c1.7,3.7,3.2,7.1,5,10.9c-4,1.5-7.8,3-12,4.6c-1.2-4-2.2-7.6-3.4-11.5
		C224.6,178,227.8,176.8,231.4,175.4z"/>
	<path class="st0" d="M240.9,38.6c-3.3-1.8-6.3-3.4-9.8-5.3c1.6-3.5,3.2-7,5-11c3.9,2.1,7.4,4,11.2,6.1
		C245,32.2,243,35.4,240.9,38.6z"/>
	<path class="st0" d="M166.4,33.6c-1.7-3.7-3.3-7.1-5-10.9c4-1.5,7.8-3,11.9-4.5c1.2,4,2.3,7.6,3.4,11.5
		C173.2,31,170,32.2,166.4,33.6z"/>
	<path class="st0" d="M277,104.5c4,0,7.7,0,11.9,0c-0.3,4.2-0.6,8.3-0.9,12.7c-4.1-0.6-7.7-1.1-11.8-1.6
		C276.5,112,276.7,108.5,277,104.5z"/>
	<path class="st0" d="M285.2,78.8c0.9,4.4,1.8,8.2,2.7,12.5c-4,0.6-7.7,1.1-11.7,1.7c-0.8-3.5-1.6-6.9-2.5-10.7
		C277.4,81.1,281,80,285.2,78.8z"/>
	<path class="st0" d="M117.1,142c3.8-1.8,7.3-3.3,10.9-5c1.8,3.2,3.5,6.2,5.3,9.6c-3.2,2.1-6.4,4.2-10,6.6
		C121.3,149.5,119.3,145.9,117.1,142z"/>
	<path class="st0" d="M274.5,55.6c2.1,3.7,4,7.3,6.2,11.1c-3.7,1.7-7.1,3.3-10.8,5.1c-1.8-3.2-3.5-6.3-5.4-9.7
		C267.8,59.9,270.9,57.9,274.5,55.6z"/>
	<path class="st0" d="M139.9,53.5c-2.2,3-4.3,5.8-6.6,8.9c-3.2-2-6.4-4.1-10.1-6.4c2.6-3.5,5-6.8,7.7-10.3
		C134.1,48.5,136.9,51,139.9,53.5z"/>
	<path class="st0" d="M209.9,27.2c0.5-4,1-7.7,1.6-11.8c4.3,0.9,8.1,1.7,12.4,2.6c-1.1,4-2.1,7.6-3.2,11.5
		C217.1,28.7,213.7,28,209.9,27.2z"/>
	<path class="st0" d="M250,163.4c2.7,3.1,5.1,5.9,7.8,9.1c-3.5,2.6-6.7,5-10.2,7.6c-2.3-3.5-4.3-6.7-6.5-10
		C244.2,167.8,247,165.7,250,163.4z"/>
	<path class="st0" d="M121.6,93.5c0.1,0.8,0.2,1.1,0.2,1.5c-0.3,3.1-0.5,6.1-0.8,9.4c-3.9,0-7.6,0-11.9,0c0.3-4.2,0.6-8.2,1-12.4
		C114,92.5,117.7,93,121.6,93.5z"/>
</g>
</svg>
