<?xml version="1.0" encoding="utf-8"?>
<!-- Generator: Adobe Illustrator 27.0.0, SVG Export Plug-In . SVG Version: 6.00 Build 0)  -->
<svg version="1.1" id="Layer_1" xmlns="http://www.w3.org/2000/svg" xmlns:xlink="http://www.w3.org/1999/xlink" x="0px" y="0px"
	 viewBox="0 0 395 390" style="enable-background:new 0 0 395 390;" xml:space="preserve">
<style type="text/css">
	.st0{fill:#707070;}
</style>
<g>
	<path class="st0" d="M100.5,232.5c0-8.6,0-16.8,0-25.1c0-6.8,3.6-9.3,9.9-6.8c9.8,3.9,19.6,7.8,29.9,11.9
		c10.1-34.8,10-68.4-7.1-100.8c-7,3.1-13.3,6.4-19.9,8.7c-19.1,6.7-36,3.3-50.4-11.4C52.7,98.7,44.4,86.7,37.1,74.1
		C26.9,56.6,18.6,38.2,11.6,19.2c-2.1-5.6,0-9.1,5.9-9.7c25.1-2.6,50-2.5,74.8,2.9c13.4,2.9,26.1,7.4,37.6,14.9
		c21.1,13.9,27.8,31.5,20.9,55.7c-1.8,6.3-4.8,12.2-7.1,18.4c-0.5,1.2-0.9,3-0.3,4c6.4,11.1,10.7,23,13.3,35.5
		c0,0.2,0.2,0.4,0.6,0.8c5.7-5.4,11.5-10.6,17.1-16.1c0.6-0.6,0.5-2.3,0.2-3.4c-1.4-7-1.8-14.1-0.3-21.2
		c4.1-18.5,19.1-31.5,38.5-33.3c12.1-1.1,23.9,0.6,35.3,4.5c4.7,1.6,6.1,3.7,5.1,8.5c-3.3,16.8-9.9,32.1-21.1,45.2
		c-10.1,11.7-23.4,13.7-37.8,11.9c-1.5-0.2-3.1-0.3-4.4-0.9c-5.8-2.7-10.1-0.9-14.2,3.7c-4.7,5.3-10,10-15,15.2
		c-0.9,1-1.7,2.6-1.7,3.9c1.2,19.2-1.6,37.8-7.3,56c-0.1,0.3-0.1,0.7-0.2,1.4c12.8,5.1,25.5,10.2,38.7,15.5c0-8.7,0-16.9,0-25.2
		c0-6.8,3.6-9.3,9.9-6.8c25,10,50,20,74.9,29.9c1.5,0.6,3,1.2,4.9,1.9c0.8-8.4,1.5-16.5,2.2-24.7c1.2-14.4,2.5-28.8,3.7-43.2
		c2-23.8,4.1-47.7,6.1-71.5c0.5-5.5,2.3-7.3,7.8-7.3c14.8,0,29.7,0,44.5,0c5.3,0,7.2,1.7,7.8,6.9c5.3,49.5,10.5,98.9,15.8,148.4
		c4.6,43.3,9.3,86.5,13.9,129.8c0.6,5.8-1.7,8.3-7.6,8.3c-118.6,0-237.3,0-355.9,0c-5.6,0-7.6-2.1-7.6-7.7c0-54.8,0-109.5,0-164.3
		c0-6.6,3.6-9,9.8-6.6c25.1,10,50.2,20.1,75.3,30.1C97.2,231.3,98.7,231.8,100.5,232.5z M22.8,367c82.1,0,163.8,0,245.8,0
		c0.1-1.2,0.3-2.3,0.4-3.4c1.1-12.8,2.2-25.6,3.2-38.4c2.2-25.5,4.3-50.9,6.6-76.4c0.2-2.8-0.4-4.1-3.2-5.2
		c-23.4-9.2-46.7-18.6-70.1-28c-1-0.4-2-0.7-3.2-1c0,8.5,0,16.6,0,24.7c0,7.1-3.5,9.5-10,7c-15.5-6.2-31-12.4-46.5-18.6
		c-11-4.4-21.9-8.8-33.3-13.3c0,8.7,0,16.8,0,25c0,7.1-3.5,9.5-10.1,6.8c-18-7.2-36.1-14.4-54.1-21.6c-8.4-3.4-16.8-6.7-25.5-10.2
		C22.8,265.5,22.8,316.1,22.8,367z M298,163.7c-5.8,67.9-11.5,135.5-17.3,203.3c29.8,0,59,0,88.6,0c-7.2-67.9-14.4-135.6-21.6-203.3
		C330.9,163.7,314.7,163.7,298,163.7z M25.2,20.8c0.5,1.5,0.8,2.6,1.2,3.6C33.4,39,40,53.8,47.6,68.1c6.7,12.7,15.1,24.3,25.7,34.3
		c8.2,7.8,17.7,10.9,28.8,8.9c8.6-1.6,16.5-5,23.9-9.9c-9.3-12.5-20.4-22.4-33.2-30.4c-3.6-2.2-4.4-5.6-2.5-8.6
		c1.9-3,5.3-3.7,8.8-1.5c3.9,2.5,7.9,4.8,11.4,7.9c8.4,7.4,16.4,15.2,24.6,22.8c3.1-6.7,5.5-14.3,6-22.5c0.7-11-2.6-20.4-11.6-26.9
		c-6.6-4.7-13.7-9.3-21.2-12.3C81.7,19.3,53.9,18.9,25.2,20.8z M346.3,151.5c-1.9-18.1-3.8-35.9-5.7-53.5c-12.6,0-24.8,0-37,0
		c-1.5,17.9-3,35.6-4.5,53.5C314.9,151.5,330.3,151.5,346.3,151.5z M240.7,82.5c-9.5-2.8-18.6-3.9-27.8-2.6
		c-11.5,1.7-20.4,7.2-25.1,18.2c-2.3,5.5-3.2,11.3-1.9,17.5c5.1-3.8,9.7-7.4,14.6-10.7c3.6-2.5,8-1,9.2,2.7c1,3.1-0.2,5.5-2.8,7.4
		c-4.4,3.1-8.7,6.5-13.3,10c10.1,3.3,22,1.1,28.2-5.5C231.5,109.2,236.9,96.5,240.7,82.5z"/>
	<path class="st0" d="M352.1,8c2.4,0,4.7-0.1,7.1,0c12.6,0.6,22.7,11.2,22.7,23.8c0,12.6-9.9,23.7-22.5,23.9
		c-5.5,0.1-8.6,1.1-11.2,6.5c-3.7,7.7-11,11.4-19.6,11.6c-5.8,0.1-11.8,0.4-17.5-0.6c-12-2.1-20-13.3-19-25.4
		c1.1-12.1,11.2-21.8,23.5-21.7c4.6,0,7.3-0.7,9.5-5.5c3.8-8.2,11.1-12.1,20.2-12.6C347.7,7.8,349.9,7.9,352.1,8
		C352.1,7.9,352.1,8,352.1,8z M352.2,19.9c-1.2,0-2.5,0-3.7,0c-9.3,0-13.1,3.2-14.5,12.4c-0.5,3.5-2.7,5.4-6.4,5.5
		c-3.9,0.1-7.7,0-11.6,0c-6.8,0.2-11.9,5.4-11.9,11.9c0,6.5,5.1,11.8,11.8,12c3.7,0.1,7.5,0.1,11.2,0c7.5-0.1,12.1-4.2,12.9-11.7
		c0.5-4.3,2.5-6.2,6.8-6.3c3.7-0.1,7.5,0.1,11.2,0c6.7-0.2,11.9-5.4,11.9-11.9c0-6.5-5.1-11.8-11.8-12
		C356.2,19.8,354.2,19.9,352.2,19.9z"/>
	<path class="st0" d="M148.4,277.4c19.2,0,38.4,0,57.6,0c6.4,0,8.2,1.9,8.2,8.2c0,14.6,0,29.2,0,43.8c0,5.9-2,7.8-7.9,7.9
		c-38.7,0-77.3,0-116,0c-5.9,0-7.8-2-7.8-7.9c0-14.7,0-29.4,0-44.2c0-5.9,2-7.8,7.8-7.8C109.7,277.4,129.1,277.4,148.4,277.4z
		 M94.8,289.5c0,12.1,0,23.8,0,35.5c16,0,31.8,0,47.4,0c0-12,0-23.6,0-35.5C126.4,289.5,110.7,289.5,94.8,289.5z M202.1,289.6
		c-16,0-31.8,0-47.4,0c0,12,0,23.8,0,35.5c16,0,31.6,0,47.4,0C202.1,313.2,202.1,301.6,202.1,289.6z"/>
</g>
</svg>
