<?xml version="1.0" encoding="utf-8"?>
<!-- Generator: Adobe Illustrator 27.0.0, SVG Export Plug-In . SVG Version: 6.00 Build 0)  -->
<svg version="1.1" id="Layer_1" xmlns="http://www.w3.org/2000/svg" xmlns:xlink="http://www.w3.org/1999/xlink" x="0px" y="0px"
	 viewBox="0 0 343 357" style="enable-background:new 0 0 343 357;" xml:space="preserve">
<style type="text/css">
	.st0{fill:#707070;}
</style>
<g>
	<path class="st0" d="M27.2,208.1c0-1.8,0-3.1,0-4.4c0-29.1,0-58.1,0-87.2c0-2.6-0.7-4.3-2.9-5.9c-6.7-4.9-9.8-11.8-10.1-20
		c-0.1-2,0-4,0-6.2c-1.4-0.1-2.4-0.2-3.5-0.2c-5-0.1-7.4-4-5.1-8.4c10-19,20-37.9,30-56.9c1.8-3.4,4.3-4.8,8.1-4.8
		c83.5,0,166.9,0,250.4,0c3.8,0,6.2,1.4,8,4.8c9.7,18.6,19.5,37.1,29.3,55.6c3.2,6.1,1.2,9.5-5.7,9.7c-0.6,0-1.2,0.1-2.3,0.1
		c0,2.1,0,4.2,0,6.3c-0.2,8.5-3.8,15.3-10.5,20.5c-1.2,0.9-2.2,2.8-2.2,4.2c-0.1,30-0.1,59.9-0.1,89.8c0,0.8,0.2,1.7,0.3,2.9
		c2,0,3.8,0,5.7,0c4.1,0.1,6.3,2.4,6.3,6.5c0,15.2,0,30.5,0,45.7c0,1.3,0,2.7,0,4.4c2.1,0,3.8,0,5.6,0c3.3,0.1,5.8,2.6,5.8,5.9
		c0.1,2.9-0.1,5.8,0,8.6c0.2,3.9-0.2,7.4-4.2,9.5c-0.5,0.2-0.3,3.1,0.3,3.5c4.1,2.6,4.1,6.5,3.9,10.5c-0.1,2,0,4,0,6
		c0,5.5-1.9,7.4-7.3,7.5c-0.9,0-1.7,0-2.6,0c-0.7,3.1,0.5,3.9,3.2,3.9c4.6,0,6.7,2.3,6.7,6.9c0,3.5,0,7,0,10.5
		c0,4.1-2.3,6.4-6.4,6.4c-34.8,0-69.6,0-104.4,0c-4.1,0-6.3-2.3-6.3-6.4c0-3.6,0-7.2,0-11c-2.3,0-4.3,0-6.8,0c0,3.7,0,7.3,0,11
		c0,4-2.4,6.4-6.5,6.4c-34.8,0-69.6,0-104.4,0c-4.1,0-6.4-2.3-6.4-6.4c0-3.6,0-7.2,0-11.3c-1.8,0-3.2,0-4.7,0c-22,0-43.9,0-65.9,0
		c-5.3,0-7.4-2.1-7.4-7.3c0-34.3,0-68.6,0-103c0-6.2,1.7-8,7.9-8C24,208.1,25.4,208.1,27.2,208.1z M167.3,207.8c0-0.3,0-0.5-0.1-0.6
		c-0.8-0.8-1.5-1.6-2.3-2.4c-7.1-7.2-10.7-15.8-10.8-25.9c0-4.6,2.2-6.7,6.8-6.7c11.8,0,23.7-0.1,35.5,0c3,0,4.5-0.5,5.3-3.9
		c4.1-16,17.4-26.7,34-27.9c15.1-1.1,30.2,8.2,36.5,22.6c6.4,14.6,2.8,31.3-9.1,42.5c-0.6,0.6-1.2,1.3-2.1,2.3c7,0,13.5,0,20.3,0
		c0-1.7,0-3.1,0-4.6c0-29.1-0.1-58.1,0.1-87.2c0-5.1-1.4-8.8-5.4-11.8c-5.3,7.3-12.3,11.5-21.5,11.5c-9.1,0-16-4.5-21.4-11.7
		c-5.5,7.6-12.4,11.7-21.5,11.7c-9.2,0-16.1-4.4-21.5-11.7c-5.5,7.5-12.5,11.8-21.7,11.8c-9.2,0-16-4.5-21.4-11.7
		c-9.5,13.8-30,17.2-43.3,0.1c-5.3,7.4-12.3,11.6-21.5,11.6c-9.2,0-16-4.5-21.2-11.3c-5,3.1-5.5,7.6-5.4,12.8
		c0.2,28.7,0.1,57.4,0.1,86.1c0,1.5,0,2.9,0,4.5c3.8,0,7.1,0,9.9,0c-1.3-4.3-3-8.5-3.7-12.8c-0.6-3.8,0-7.7-0.2-11.6
		c-0.5-9.1,1.2-17.4,9.1-23.1c-3-3.3-8-5.3-6.4-10.4c0.5-1.7,3.7-2.7,6.2-4.3c-0.7-8.1,2.9-9.6,9.3-6.5c1.4-3,1-7.5,5.5-7.8
		c5.4-0.4,4.7,5.1,6,7.1c3,0,6.3-0.9,7.4,0.2c1.7,1.8,2,5.1,2.8,7.5c1.7,1.1,5.1,2.1,5.6,3.9c1.5,5.1-3.5,7-6.2,10
		c10.8,11.1,12.7,31.3,4.3,47.8C126.4,207.8,146.8,207.8,167.3,207.8z M41.3,232.8c0,23.1,0,45.9,0,68.7c17.2,0,34.2,0,51.5,0
		c-1-7.9,3.6-9.7,10.2-9.1c-0.3-1.5-0.5-2.6-0.8-3.6c-0.7,0-1.2-0.1-1.7-0.1c-6.1-0.1-7.8-1.9-7.8-8.1c0-3.2-0.5-6.6,0.2-9.7
		c0.4-2.1,2.1-4.3,3.8-5.8c1-0.8,3-0.4,5-0.6c-0.9-5.8,1.2-10.6,4.9-14.6c-0.8-1.8-1.5-3.3-2.3-5c2.2-1.2,4.1-2.3,6.5-3.6
		c0.8,5.2,4.4,5.2,7.9,4.4c3.3-0.7,6,0.1,8.7,1.9c0.6,0.4,1.8,0.7,2.4,0.3c7.2-3.9,13.7-1.8,20,2.3c0.9,0.6,2.6,1.2,3.3,0.7
		c4.6-2.8,9.6-2.3,14.5-2.7c1.6-0.1,3.4-1.1,4.5-2.2c3-3.1,6.3-5.4,10.6-5.8c2.3-0.2,3.3-1.1,3.6-3.3c0.1-0.8,0.7-1.5,1-2.3
		c2.2,0.7,4.3,1.2,6.8,2c-2.7,4.2,0.1,6.2,2.6,8.7c4.1,4.2,5.4,9.4,3.9,15.2c-0.3,1.3-0.6,2.6-0.9,4.2c1.8,0,3.6-0.5,4.7,0.1
		c2,1.2,5,2.9,5.3,4.8c0.8,4.6,0.3,9.4,0.2,14.2c0,0.8-0.7,2.1-1.4,2.5c-2.7,1.3-5.6,2.3-8.8,3.5c-0.4,2.5,1.4,2.8,3.9,2.7
		c3.7,0,6.1,2.5,6.3,6.2c0,1,0.2,1.9,0.3,2.8c2.3,0,4.3,0,5.7,0c1-3.1,1.8-5.7,2.8-8.9c-2.3-2.2-5.2-5-8.2-7.8
		c1.4-1.5,2.3-2.6,3.4-3.7c1.5-1.4,3.2-2.5,2.8-5.2c-0.5-4.5-0.5-8.8,4.4-11.7c1.5-0.9,2.7-4.4-0.2-6.7c-2.8-2.3-5.4-5.1-8.3-7.8
		c1.9-1.8,3.5-3.5,5.2-5.1c3,2.8,5.9,5.5,8.8,8.2c0.2-0.1,0.4-0.2,0.6-0.3c-1.6-4.1-3.2-8.2-4.8-12.4c2.5-1,4.5-1.8,6.8-2.7
		c1.7,4.2,3.3,8.1,5,12c0.3-0.1,0.5-0.1,0.8-0.2c0.2-3.8,0.5-7.6,0.8-11.8c2.6,0.1,4.8,0.2,7.4,0.4c-0.2,3.9-0.4,7.4-0.7,10.9
		c-0.2,1.9,0.4,2.9,1.9,4.3c2.5,2.3,4.7,5.1,6.1,8.2c1.9,4.1,1.8,4.3,5.9,3.2c3.1-4.1,0.5-6.3-2.2-8.7c-2.1-1.9-3.8-4.1-5.8-6.3
		c1.5-1.5,3-3.1,4.7-4.9c3.1,2.8,6,5.5,8.9,8.3c0.2-0.2,0.4-0.3,0.6-0.5c-1.5-4-3.1-8-4.7-12.2c2.4-1,4.4-1.8,6.7-2.7
		c1.7,4.2,3.4,8.1,5,12c0.2,0,0.5-0.1,0.8-0.1c0.3-3.9,0.6-7.8,0.8-11.9c2.7,0.1,4.8,0.3,7.2,0.4c-0.2,3.9-0.3,7.4-0.6,10.9
		c-0.2,1.9,0.3,2.9,1.8,4.3c2.5,2.3,5,5.1,6,8.2c1.3,3.8,3.1,4.2,6.3,3.3c1.8-3.5,1.1-6.1-2.1-8.5c-2.3-1.8-4-4.3-6-6.7
		c1.3-1.4,2.8-3,4.5-4.7c2.5,2.3,5,4.5,7.4,6.8c0.3-0.2,0.7-0.4,1-0.5c-1.1-3.5-2.2-7-3.4-10.7c4.4-1,2.9-4.2,2.8-7.1
		C211.3,232.8,126.4,232.8,41.3,232.8z M92.5,309.2c-1.5,0-2.9,0-4.2,0c-16,0-31.9,0-47.9,0c-4.4,0-6.8-2.4-6.8-6.9
		c0-23.5,0-46.9,0-70.4c0-4.5,2.3-6.8,6.8-6.8c85.6,0,171.1,0,256.7,0c4.6,0,6.8,2.2,6.8,6.8c0,4.4-0.1,8.7,0,13.1
		c0,1.4,0.6,2.9,0.9,4.3c0.3,0,0.6-0.1,0.9-0.1c0.3-3.9,0.5-7.8,0.8-12c2.6,0.2,4.8,0.3,7,0.4c0,2.8,0.1,5.3,0,7.7
		c-0.2,5.5-0.3,5.5,1.6,6.9c0-12.3,0-24.4,0-36.6c-97.7,0-195.2,0-292.6,0c0,34.5,0,68.6,0,102.8c0.6,0.1,1.1,0.3,1.6,0.3
		c25.3,0,50.6,0,76,0c0.8,0,1.6-0.9,2.5-1.4c-0.9-0.4-1.7-1.1-2.6-1.2C95,316.1,93.1,314.4,92.5,309.2z M13.7,76.4
		c103.7,0,206.7,0,310.2,0c-1.8-3.5-3.7-6.4-5-9.6c-1.2-3-3.1-3.7-6.3-3.7c-96,0.1-191.9,0.1-287.8,0.1c-0.9,0-1.8-0.1-2.6,0
		c-0.8,0.2-1.8,0.5-2.1,1.1C18,68.2,15.9,72.1,13.7,76.4z M302,35c-1.8-3.5-3.6-6.4-4.9-9.6c-1.3-3.1-3.2-4-6.6-4
		c-81.2,0.1-162.4,0.1-243.5,0.1c-0.9,0-1.8-0.1-2.6,0c-0.7,0.1-1.7,0.2-2,0.7c-2.3,4.1-4.5,8.4-6.9,12.8C124.7,35,213,35,302,35z
		 M24.8,55.4c96.3,0,192,0,288,0c-1.6-3.1-3.3-5.8-4.4-8.6c-1.3-3.5-3.5-4.3-7.1-4.3c-88.3,0.1-176.6,0.1-264.9,0.1
		c-1,0-2.1-0.2-3,0.1c-1,0.3-2.2,0.8-2.6,1.6C28.7,47.8,26.9,51.4,24.8,55.4z M48.4,207.8c0-31.3,0-62.3,0-93
		c-4.6,0.4-9,0.8-13.6,1.1c0,30.5,0,61.1,0,91.9C39.4,207.8,43.7,207.8,48.4,207.8z M302.8,207.8c0-30.9,0-61.5,0-91.9
		c-4.7-0.4-9.1-0.8-13.6-1.1c0,30.8,0,61.8,0,93C293.8,207.8,298.2,207.8,302.8,207.8z M161.5,179.8c1,11.3,5.8,19.7,15.5,24.8
		c10.7,5.6,21.3,4.8,31-2.4c7.4-5.4,11.3-12.9,11.5-22.4C200,179.8,181.1,179.8,161.5,179.8z M100.4,308.7c34.2,0,68,0,102,0
		c0-3,0-5.8,0-8.6c-34.1,0-68,0-102,0C100.4,303,100.4,305.7,100.4,308.7z M100.4,336.5c34.2,0,68,0,102,0c0-3,0-5.8,0-8.6
		c-34.1,0-68,0-102,0C100.4,330.7,100.4,333.4,100.4,336.5z M202.6,272.4c-34.2,0-68.2,0-102.2,0c0,3,0,5.7,0,8.5
		c34.1,0,68.1,0,102.2,0C202.6,278,202.6,275.4,202.6,272.4z M326.6,327.9c-34.2,0-68.1,0-101.9,0c0,3.1,0,5.9,0,8.6
		c34.1,0,67.9,0,101.9,0C326.6,333.6,326.6,330.9,326.6,327.9z M326.5,281c0-3.2,0-5.9,0-8.7c-34.1,0-67.9,0-101.8,0
		c0,3,0,5.8,0,8.7C258.7,281,292.5,281,326.5,281z M326.6,300.1c-34.2,0-68.1,0-101.9,0c0,3,0,5.8,0,8.6c34.1,0,67.9,0,101.9,0
		C326.6,305.7,326.6,303.1,326.6,300.1z M247,178.2c-0.9-8.6-1.6-17.1-5.1-25c-0.9-1.9-2.5-3.5-3.9-5.2c-1.4,1.8-3.5,3.4-4.1,5.4
		c-1.6,5.3-3.1,10.8-3.8,16.3c-1.2,10.1-0.7,20.2,2.6,29.9c1,3,3.3,5.5,5,8.3c1.8-2.8,3.6-5.6,5.4-8.4c0.1-0.1,0.1-0.2,0.1-0.4
		C244.6,192.1,245.8,185.1,247,178.2z M108.1,84.4c-1,8.6,0.4,16.1,8,21.2c5.8,3.9,13.8,3.7,19.7-0.3c6.3-4.3,9.1-12.1,7.3-21.1
		c-10.7,0-21.5,0-32.3,0C109.9,84.1,109.1,84.3,108.1,84.4z M21.9,84.3c-1,9.1,0.6,16.8,8.7,21.7c6,3.6,14,3.1,19.7-1.2
		c5.9-4.5,8.6-12.7,6.5-20.5C45.3,84.3,33.8,84.3,21.9,84.3z M194.4,84.3C193,94.5,196,101.9,203,106c6.1,3.5,14.1,3.1,19.7-1.2
		c6.8-5.3,7.8-12.5,6.8-20.4C217.7,84.3,206.1,84.3,194.4,84.3z M315.7,84.4c-11.9,0-23.5,0-35.2,0c-0.9,8.6,0.4,16.1,8,21
		c6.1,3.9,12.5,4,18.8,0.4C315.2,101,316.6,93.3,315.7,84.4z M272.5,84.4c-11.9,0-23.5,0-35.1,0c-1,9,0.5,16.8,8.8,21.6
		c6.6,3.7,13.2,3.3,19.3-1.2C272.5,99.7,273.5,92.4,272.5,84.4z M65.1,84.3c-1.1,9.2,0.4,17,8.8,21.7c6.6,3.7,13.2,3.2,19.3-1.2
		c7-5.1,7.9-12.4,6.8-20.5C88.4,84.3,76.9,84.3,65.1,84.3z M151.3,84.4c-1.1,8.7,0.2,16.3,8,21.2c6.4,4,13.1,3.9,19.4-0.2
		c7.5-5,8.7-12.5,7.7-20.9C174.7,84.4,163.2,84.4,151.3,84.4z M249.2,205.5c11.2-3.8,18.9-15.4,18.8-27.8
		c-0.1-12.2-8-23.8-18.8-27.3C255.2,168.7,255.2,186.9,249.2,205.5z M96.2,193.4c7.2-5.7,7.9-7.3,6.4-11.7c-2.9,1-6,3.1-8.5,2.6
		c-2.9-0.6-5.3-3.6-7.9-5.5c-2.4,1.8-4.8,4.3-7.7,5.6c-3.7,1.7-6-2-8.5-4.1c-2.2,7,2.2,9.9,6.4,13C86.1,185.3,86.1,185.3,96.2,193.4
		z M222.3,172c0.5-3.9,0.8-7.5,1.6-11c0.7-3.5,1.8-7,2.8-10.8c-9.6,3.8-17.5,13.6-17.6,21.8C213.4,172,217.7,172,222.3,172z
		 M100.9,171c-3-5.5-5.6-6.5-11.6-5.6c-2.5,0.4-5.2,0-7.7-0.5c-3.2-0.6-8.8,2.1-9.7,5.2c-0.1,0.5,0,1.3,0.3,1.7
		c1.6,1.7,3.3,3.2,4.7,4.6c3.8-1.7,5-7.2,9.4-5.9c3.4,1,6.3,3.6,9.7,5.6C97.3,174.7,99.1,172.8,100.9,171z M101.3,199.5
		c-7.4,6-10.5-1.9-15.2-4.7c-4.6,3-7.7,10.5-15.7,4c4.2,8.2,10.4,9.5,17.5,9.2C94.2,207.8,98.8,205.4,101.3,199.5z M178,264.5
		c-0.7-7.2-4.7-9.4-15.5-8.8c-5.8,0.3-9.1,3.5-9,8.8C161.6,264.5,169.7,264.5,178,264.5z M109.5,264.5c6.7,0,13.1,0,19.5,0
		c-3.3-9.1-7.7-12.7-13.6-11.1C110.8,254.6,108.5,258.8,109.5,264.5z M185.8,265.2c2.5-0.7,5.5-0.6,6.3-2c1.3-2.1,1.6-5.2,1.7-7.8
		c0.1-3.6-2.7-6.7-6.4-7.7c-3.7-1-6.7,0.1-9.3,3.2C182.8,254.2,185.3,258.6,185.8,265.2z M227.5,318.8c0.2-0.4,0.3-0.9,0.5-1.3
		c-1.2-0.4-2.3-1-3.5-1.1c-5.2-0.3-6.9-1.7-7.9-6.9c-2,0-4.1,0-6.1,0c-0.9,5.2-2.6,6.6-8,6.9c-1,0.1-2,0.8-3,1.3
		c0.2,0.4,0.3,0.8,0.5,1.1C209.2,318.8,218.3,318.8,227.5,318.8z M133.1,255c3.5,9.6,5,10.8,12.3,9.2c0.5-2.2,1.1-4.5,1.6-6.7
		C140.7,252.7,137.4,252.1,133.1,255z M91.5,157.5c-0.3-2.9-0.5-5.2-0.8-7.8c-3,0-6.1,0-9,0c-0.3,2.8-0.5,4.9-0.8,7.8
		C84.5,157.5,87.9,157.5,91.5,157.5z M131.5,292.4c0.2-0.3,0.4-0.7,0.6-1c-0.9-0.9-1.8-2.5-2.7-2.6c-6.4-0.2-12.8-0.1-19.2-0.1
		c-0.2,0.3-0.4,0.6-0.6,0.9c0.9,0.9,1.7,2.6,2.7,2.7C118.7,292.5,125.1,292.4,131.5,292.4z M171.4,292.4c0.2-0.3,0.5-0.7,0.7-1
		c-0.9-0.9-1.8-2.7-2.8-2.7c-6.3-0.2-12.6-0.1-18.9-0.1c-0.2,0.5-0.4,0.9-0.7,1.3c1.1,0.8,2.2,2.3,3.3,2.3
		C159.2,292.6,165.3,292.4,171.4,292.4z M170.3,319c0.3,0.4,0.6,0.7,1,1.1c5.7,0,11.4,0.2,17.1-0.1c1.2-0.1,2.4-1.8,3.6-2.7
		c-0.2-0.3-0.3-0.6-0.5-1c-6.3,0-12.6-0.1-18.8,0.1C171.9,316.5,171.1,318.1,170.3,319z M279,264.5c-0.7-4.4-3.6-6.9-7.5-6.7
		c-3.8,0.2-6.3,2.9-6.2,6.7C269.8,264.5,274.4,264.5,279,264.5z M314.3,264.5c-1-4.6-3.6-6.8-7.4-6.7c-3.7,0.2-6.2,2.6-6.6,6.7
		C304.9,264.5,309.5,264.5,314.3,264.5z M131.2,320.1c5.8,0,11.5,0.2,17.2-0.1c1.3-0.1,2.5-1.8,3.7-2.8c-0.2-0.3-0.3-0.6-0.5-0.9
		c-5.9,0-11.8,0.1-17.7,0C131.2,316.2,130.4,317.2,131.2,320.1z M243.8,264.5c-1-4.5-3.8-6.9-7.6-6.6c-3.6,0.3-5.9,2.6-6.3,6.6
		C234.5,264.5,239.1,264.5,243.8,264.5z M110.2,320c4.4,0,8.6,0,12.9,0c0-1.2,0-2.3,0-3.7c-3.6,0-7,0.1-10.5,0
		C110,316.2,109.5,317.5,110.2,320z M192.2,292.4c0.2-0.3,0.5-0.7,0.8-1c-0.9-0.9-1.7-2.6-2.7-2.7c-3.7-0.3-7.5-0.1-11.2-0.1
		c-0.2,0.4-0.4,0.8-0.5,1.2c1,0.8,2,2.3,3,2.4C185.1,292.6,188.7,292.4,192.2,292.4z M248,320.2c0.3-0.4,0.6-0.8,0.9-1.1
		c-0.9-0.9-1.7-2.5-2.6-2.6c-3.4-0.3-6.8-0.1-11.2-0.1C238.8,322.5,244,319.1,248,320.2z M270.4,316.5c0,4.1,1,4.1,11.7,3.3
		c-0.4-1.2-0.7-2.3-1-3.3C277.2,316.5,273.8,316.5,270.4,316.5z M304.9,316.3c1.2,4.3,3.1,4.8,11.5,3.4c0.2-2.5-0.6-3.7-3.3-3.5
		C310.4,316.5,307.7,316.3,304.9,316.3z M219.3,201.7c2.5,1.4,4.7,2.7,7.7,4.4c-1.3-4.3-2.3-7.6-3.4-11.2
		C222.1,197.3,220.9,199.2,219.3,201.7z M242.7,288.9c2.6,2,4.9,4.9,8.9,3C250,286.4,245.6,289.5,242.7,288.9z M322,293.4
		c-1-5.1-3-5.8-8.2-3.1C316.2,291.2,318.7,292.2,322,293.4z M286.5,292.1c-0.7-4-1-4.1-7.1-3C280.9,292.4,283.3,293.1,286.5,292.1z
		 M289.3,316.7c1.5,3.8,4.6,1.6,7.8,2.2C295,314.8,291.8,317,289.3,316.7z M261.7,318.5c0.1-0.5,0.2-0.9,0.3-1.4
		c-2-0.4-4-0.7-6.2-1.1C256.6,319.3,257,319.5,261.7,318.5z"/>
	<path class="st0" d="M176.5,195c-2.2-1.4-4.1-2.5-6.3-3.9c2-3.4,4-6.5,6-9.8c2.1,1.3,4,2.4,6.2,3.8
		C180.4,188.4,178.5,191.5,176.5,195z"/>
	<path class="st0" d="M211.1,190.9c-2.3,1.4-4.2,2.5-6.3,3.8c-2-3.3-3.9-6.3-6-9.7c2.1-1.3,3.9-2.5,6.2-3.9
		C207,184.3,209,187.5,211.1,190.9z"/>
	<path class="st0" d="M194.2,187.2c0,3.4,0,6.6,0,10c-2.4,0-4.6,0-7,0c0-3.3,0-6.5,0-10C189.4,187.2,191.6,187.2,194.2,187.2z"/>
</g>
</svg>
