<?xml version="1.0" encoding="utf-8"?>
<!-- Generator: Adobe Illustrator 27.0.0, SVG Export Plug-In . SVG Version: 6.00 Build 0)  -->
<svg version="1.1" id="Layer_1" xmlns="http://www.w3.org/2000/svg" xmlns:xlink="http://www.w3.org/1999/xlink" x="0px" y="0px"
	 viewBox="0 0 848 845" style="enable-background:new 0 0 848 845;" xml:space="preserve">
<style type="text/css">
	.st0{fill:#707070;}
</style>
<g>
	<path class="st0" d="M701.2,722.2c11.3-20.4,30.4-34.7,50.1-34.2c35.8,0.9,60.2,50.4,53.4,70.4c-0.8,2.4-2.9,6.7-1.6,11.7
		c2.4,9.3,13.5,11,20.6,17.6c6,5.6,11.5,17.1,7,43.4c-3.6,0-7.1,0-10.6,0c-197.8,0-395.7,0-593.5,0c-26.3,0-52.6,0.1-79,0
		c-37.8-0.1-71.3-15-95.3-39.2c-6.1-6.2-47.6-45.7-37.9-93.9c3.3-16.3,11.4-28.4,17.3-35.7c3.9,4.7,8,8.4,12,11.2
		c33.5,24.3,79.6,8.6,88.9,5.3c0-51.7,0-103,0-152.2c-18.9-8.5-37.7-14.9-54.4-24.9c-34.6-20.7-57.5-50.6-62.9-91.6
		c-4.3-32.5,5.4-61.3,25.8-86.6c4.1-5.1,4.8-9.2,3.3-15.5c-12.2-51.1,6.9-99.6,42.2-130c16.8-14.4,37.2-24.7,59.6-29.2
		c20.6-4.2,38.1-9.8,52.7,0.2c13,8.9,16.6,24.6,17.7,31.7c-14.1-33.2-1.4-71.2,27.8-88.1c25.7-14.8,59.5-10.6,82.3,11
		c0.4-6.6,4.1-53,40.4-75.9c20.4-12.9,42.6-12.9,55.4-12.9c11.9,0,34,0,54.4,12.2c39,23.4,42.6,74,43,80.4c2.3-2,37.5-31.6,72.9-19
		c18.3,6.5,29.6,21.8,35.5,29.7c5.3,7.2,15.5,20.9,17.4,39.2c3.8,36.3-27.7,63-31.4,66.1c10.3,9.8,24.4,19.8,38.9,17.2
		c11.2-2,13.6-9.8,22.5-14.2c36.8-18.2,115.7,57.8,125.7,101.5c0.8,3.3,2.2,11.1,3,20.6c1.5,17.8,2.5,30-3.9,41.4
		c-4.5,8-11.2,12.8-10.2,14c1,1.2,6.6-4.5,11.9-4.4c13.3,0.3,27.8,37.5,28.8,72.5c1.2,38-17.3,76.1-54.4,102.9
		c-19.2,13.8-40.5,22.6-63.7,28.1C709.1,642.8,705.1,682.5,701.2,722.2z M546.6,214.8c5.6,7.5,10.5,14.1,15.5,20.9
		c-2.6,2.1-4.7,3.9-6.8,5.5c-29,21.7-57.9,43.5-87,65.1c-4.4,3.2-6.3,6.6-6.2,12.2c0.3,22-0.1,43.9,0.2,65.9
		c0.5,30.9,27.7,54.8,58,51.5c30.7-3.3,51.8-31.9,46.3-62.3c-1-5.3-1.9-10.6-3-16.8c38.8,3,69.4-9,80.1-48.1
		c11.2-40.9-10.1-66.9-47.1-83.3c24.7-27.5,33.8-57.6,12.2-88.9c-24.1-35-57.7-36.4-93.9-18.4c-13.6-47.3-42.6-76.6-92.4-76.5
		c-50,0.1-78.8,30-92,76.8c-32.8-16.9-63.6-17.2-88,10.8c-28.3,32.5-20.6,65.5,6.1,96.2c-6.4,3.5-12,6.2-17.4,9.4
		c-23.3,13.8-36,40.8-31.4,66.5c5,28.3,25.1,49.5,52.4,54.3c9.6,1.7,19.5,1.5,29.7,2.2c-1,5.6-2,11-3,16.4
		c-5,27.4,12.5,54.2,39.6,60.5c27.7,6.5,55.1-9.9,62.8-37.1c1.7-6.2,0.6-10.5-4.2-15.2c-29.7-29.2-59.1-58.9-88.6-88.4
		c-2.1-2.1-4.1-4.3-5-5.2c6.1-6.8,11.6-13,18.1-20.2c2.3,2.7,4,5.2,6.2,7.3c31.8,31.9,63.5,63.8,95.5,95.4c4.6,4.6,6.7,9,6.6,15.7
		c-0.2,101-0.2,201.9-0.2,302.9c0,3.2,0,6.3,0,9.2c9.5,0,17.6,0,26.3,0c0-3.7,0-6.9,0-10.2c0-127.6,0-255.2-0.2-382.8
		c0-6.2,1.8-10,6.8-13.5c12.8-9,25.1-18.7,37.6-28C502.1,248.1,524,231.7,546.6,214.8z M712.5,577.6c13.8-6.2,26.6-10.5,38.1-17.2
		c60.2-34.9,74.2-104.8,21.5-154c-4.2-3.9-2.6-6.9-1.2-10.8c17.2-47.4,3-95.7-36.8-124.3c-20.5-14.7-43.3-21.2-69.5-19.2
		c11.9,28.7,11.7,56.4-3,83.1c-14.6,26.7-37.8,41.8-67.2,47.4c-2,33.9-17.3,58.3-47.4,73.1c-1.9,1-3.6,4-4,6.2
		c-5.5,31.6,5.9,57.6,27.8,79.6c17.3,17.4,38.4,28.1,62.8,34.2c0-38.3-0.2-75.6,0.2-112.9c0-6-1.7-10.2-6.1-14.2
		c-10.1-9.5-19.8-19.4-29.2-28.7c6.6-7,12.2-12.9,18.6-19.6c12.2,12.4,23.9,24.7,36.2,36.4c4.9,4.7,7,9.4,7,16.4
		c-0.3,79.3-0.2,158.5-0.2,237.8c0,3.2,0,6.5,0,9.3c9,0,17.2,0,26.3,0c0-2.9,0-6.1,0-9.3c0-71,0-142.1,0.1-213.1
		c0-3.1,0-7.3,1.8-9.2c13.4-14,27.3-27.6,40.7-41c6.6,6.3,12.7,12,19.3,18.4c-10.7,10.5-21.1,20.6-31.2,31c-2.1,2.1-4.1,5.4-4.2,8.2
		C712.4,515,712.5,544.9,712.5,577.6z M208.5,217.9c-3.3-13.2-6.8-24.7-8.9-36.5c-0.9-5-3.1-6.2-7.1-7
		c-78.4-15.3-145.3,60.4-119.7,136.1c3.4,10.1,2.1,15.6-5.2,23c-19.9,20.4-30.2,45.2-25.9,74.1c6.5,43.3,45.6,81,90.8,88.5
		c0.1-1.1,0.4-2.1,0.4-3.2c0-37.6,0.1-75.2-0.2-112.8c0-3-2.2-6.6-4.4-8.9c-10.1-10.4-20.5-20.5-30.6-30.3
		c6.5-6.8,12.3-12.9,18.6-19.4c12.7,12.7,24.9,25.3,37.5,37.5c4.1,4,5.5,8,5.5,13.6c-0.2,85.3-0.1,170.6-0.1,256c0,2.8,0,5.6,0,8.4
		c-0.6-1.1-1.2-2.2-1.8-3.3c7.4-5.7,14.7-11.7,22.3-17.1c4.8-3.4,6-7.5,6-13.2c-0.2-68.3-0.1-136.6-0.2-205c0-5.4,1.4-9.3,5.4-12.9
		c6.8-6.1,13.2-12.7,18.5-17.8c-7.5-7.6-14.1-14.1-20.5-20.6c-1.3-0.1-4.5,0.7-5.7-0.5c-15.5-15.1-30.7-30.4-45.3-45
		c6.2-6.8,11.8-12.9,20.1-22c4.5,6.5,8.6,12.4,12.7,18.4C171.6,263.9,184,237.3,208.5,217.9z M212,524c0,14.8,1.1,29.4-0.3,43.8
		c-1.6,16.4,2.6,28.5,17.5,36.5c4.5,2.4,8.2,6.4,12.2,9.7c23.4,19.8,38.5,44.7,45.8,74.3c1.1,4.7,2,9.4,2.5,12c31.8,0,62.4,0,93.1,0
		c0-86.8,0-171.6,0-256.6c-1,0.2-1.6,0.1-1.9,0.4c-19.4,15.1-41.1,21.1-65.6,16.8c-2.3-0.4-5.7,1.9-7.8,3.9
		c-9.8,9.5-18.6,20.2-29.1,28.8C259.3,509.5,236.5,518.2,212,524z M772.1,777.1c9.3-31.6,5.6-48-13.3-59
		c-18.8-11-33.7-6.5-58.3,18.1c-22.6-18.6-43.9-9.2-65.4,6.6c-1.1-24.2-3.7-46-28.7-54.3c-22-7.3-37.4,3.7-49.8,21.5
		c-14.4-9.5-29-14-45.3-6.2c-16.5,7.8-21.4,23-24.5,39c-9.5-1.5-18.1-2.9-27.2-4.3c-6.5,26.5-19.8,47.9-40.6,66.1
		c128.6,0,255.4,0,382.3,0C798.6,793.6,795.3,790.5,772.1,777.1z M633.1,672.8c0-24,0-46.7,0-68.9
		c-70.8-21.2-119.1-60.5-118.6-141.3c-19.1-0.5-36.3-7.2-51.8-19.7c0,90.8,0,180.1,0,269.4c0.7,0.5,1.3,0.9,2,1.4
		c2-2.2,4.5-4.1,6-6.7c15.4-26.3,44.3-38.7,73.8-31.9c3.1,0.7,7-0.6,10.2-1.9c8.8-3.6,17-9,26.1-11.4
		C599.3,656.7,616.5,662,633.1,672.8z M159.2,721.4c1.1,33.6,16.1,60.8,46.6,79.2c4.6,2.8,8.2,2.6,12.7-0.1
		c19.7-11.6,33.6-27.9,41.1-49.5c13.6-39.2,0.7-92.5-44.6-124.1c-1.5-1-5.3-0.6-6.9,0.7C177.1,650.3,160.5,681,159.2,721.4z
		 M255.8,804.8c31.4,0,60.9,0.4,90.4-0.1c41.8-0.7,78.1-30.7,87.4-71.5c0.5-2.2,0.5-4.6,0.7-7.1c-42.1,0-83.5-0.1-124.8,0.1
		c-4.8,0-9.9,1.2-14.5,2.8c-2.2,0.8-4.9,3.7-5.1,5.9C286.6,761.4,275.3,784,255.8,804.8z M41.7,699.3
		c-7.2,60,62.5,117.7,125.4,104.3c-23.5-24.8-35.2-54.1-33.9-88c0.3-6.9-2.2-9.5-8.4-11.4C97.3,696,69.3,701.1,41.7,699.3z M212,497
		c30.6-8.4,55.6-22.7,74.6-47.9c-23.2-16.6-34.4-39-35.4-65.6c-11.9-7.1-20.1-2.8-27.1,6.4c-2.6,3.5-6.3,6.1-9.1,9.5
		c-1.4,1.7-2.8,4.2-2.8,6.3C212,435.8,212,466,212,497z"/>
	<path class="st0" d="M409,333.3c-28.7-28.7-57.5-57.5-86.4-86.5c5.2-5.2,11-10.9,17.4-17.3c13.7,14.1,27.3,28.1,41,42.2
		c0.6-0.4,1.2-0.8,1.9-1.2c0-27.8,0-55.6,0-84c9,0,17.3,0,26.2,0C409,235.5,409,284.6,409,333.3z"/>
	<path class="st0" d="M535.5,196.8c-33.3,22.2-65.8,43.8-99.2,66.1c0-26.2,0-51,0-76.5c8.3,0,16.6,0,25.7,0c0,8.5,0,17.1,0,27.5
		c20.2-13.4,39-25.9,58.8-39C525.7,182.1,530.3,189,535.5,196.8z"/>
	<path class="st0" d="M685.9,392.8c8.9-9.5,16-17.1,23.4-25.1c6,6.7,11.5,13,16.4,18.6c-12.6,12.6-26.3,26.2-39.1,39
		c-15-15-31.1-31.1-47.3-47.4c4.6-4.5,10.4-10.2,16.9-16.5C665.6,371.3,675.1,381.4,685.9,392.8z"/>
	<path class="st0" d="M416.5,15"/>
</g>
</svg>
