<?xml version="1.0" encoding="UTF-8"?><svg id="Layer_1" xmlns="http://www.w3.org/2000/svg" viewBox="0 0 2402.95 571.84"><defs><style>.cls-1{fill:#5aa846;}.cls-2{fill:#87c078;}.cls-3{fill:#a7cf53;}.cls-4{fill:#f07515;}.cls-5{fill:#8ec647;}</style></defs><path class="cls-1" d="M83.42,571.84c11.35-43.64,18.78-87.92,22.11-132.9,1.39-18.8,2.07-37.66,5.27-56.31,5.53-32.3,23.77-55.87,50.43-73.64,26.17-17.44,55.53-26.42,86.12-32,.58-.11,1.21,.12,2.66,.29-2.93,3.95-5.37,7.69-8.25,11.05-27,31.53-35.41,69.03-35.99,109.34-.33,23.15-1.52,46.42-9.51,68.48-18.52,51.13-53.41,85.9-105.14,103.47-1.73,.59-3.93,.35-5.13,2.22h-2.58Z"/><path class="cls-5" d="M2402.95,113.34c-26.93,9-52.03,21.87-76.52,36.05-8.71,5.05-17.31,10.32-26.2,15.03-16.56,8.78-33.89,9.84-51.71,4.26-21.16-6.64-38.16-19.55-54.54-35.78,6.53,0,11.79-.21,17.04,.04,17.53,.81,33.42-4.23,48.23-13.22,7.33-4.45,14.57-9.04,21.9-13.49,40.3-24.51,81.36-22.87,119.59,4.72,.66,.48,1.48,.74,2.22,1.11v1.29Z"/><path class="cls-1" d="M2292.02,2.42c-19.04,13.89-29.36,32.39-29.94,56.16-.14,5.56-.41,11.19-1.43,16.63-3.87,20.53-21.05,35.17-44.78,37.94-15.09,1.76-29.87,.6-43.77-7.26,1-2.52,3.31-2.9,4.99-3.87,21.23-12.16,36.2-29.37,42.1-53.42,2.78-11.34,9.66-19.34,18.29-26.35,13.23-10.75,28.33-17.51,45.01-20.81,1.16-.23,2.67,.24,3.2-1.43h2.58c.68,1.7,4.08-.83,3.76,2.42Z"/><path class="cls-2" d="M2292.02,2.42c-1.25-.81-2.51-1.62-3.76-2.42,2.15,0,4.3,0,6.44,0-.18,1.6-1.42,2.02-2.68,2.42Z"/><path class="cls-4" d="M1999.4,191.76c0-22.77,.3-45.44-.19-68.09-.15-6.71,1.8-8.29,8.14-7.9,8.98,.57,18.03,.28,27.05,.08,3.6-.08,5.28,.42,5.26,4.76-.17,45.5-.14,91-.04,136.5,0,3.28-.79,4.89-4.28,4.36-.63-.1-1.29,0-1.93-.01-9.22-.1-19.64,2.42-27.32-1.07-7.42-3.37-12.07-12.9-17.87-19.78-14.53-17.23-29.02-34.49-43.54-51.72-1.04-1.23-2.21-2.36-4.14-4.42,0,23.9-.3,46.57,.19,69.23,.15,6.71-1.8,8.29-8.14,7.9-8.98-.57-18.03-.28-27.05-.08-3.6,.08-5.28-.42-5.26-4.76,.17-45.5,.14-91,.04-136.5,0-3.28,.79-4.9,4.27-4.35,.21,.03,.43,0,.64,0,9.45,.04,19.79-2.31,28.08,.81,8.07,3.03,12.43,13.06,18.38,20.06,14.6,17.17,29.03,34.48,43.58,51.69,1.02,1.21,1.55,3.12,4.12,3.3Z"/><path class="cls-4" d="M803.69,219.57c-2.1-3-1.9-4.21,1.42-6.08,10.67-6.02,18.14-14.87,21.89-26.68,10.75-33.86-9.76-65.06-46.38-69.52-26.27-3.2-52.74-.64-79.12-1.38-3.74-.11-3.42,2.15-3.42,4.57,.03,8.58,.01,17.16,.01,25.74,0,36.47,.01,72.95-.02,109.42,0,3.31-.55,6.17,4.7,5.94,10.72-.45,21.47-.24,32.2-.07,3.26,.06,4.6-.74,4.43-4.26-.27-5.78-.22-11.58-.03-17.37,.18-5.51-2.41-12.71,1.06-16.06,3.45-3.32,10.63-.51,16.13-1.07,3.93-.41,6.22,1.14,8.34,4.34,6.73,10.2,13.77,20.2,20.67,30.29,1.44,2.1,2.56,4.19,5.85,4.14,13.26-.18,26.53-.07,41.07-.07-10.1-14.73-19.33-28.38-28.8-41.88Zm-33.79-29.36c-9.12,1.02-18.43,.4-27.65,.62-2.9,.07-2.95-1.67-2.93-3.76,.04-5.79,.01-11.58,.01-17.37s.06-12.01-.03-18.02c-.03-2.28,.43-3.67,3.15-3.54,9.41,.45,18.89-.98,28.24,.98,11.67,2.44,17.7,9.88,17.34,21.2-.35,10.9-6.73,18.61-18.13,19.89Z"/><path class="cls-4" d="M1781.78,219.59c-2.08-2.96-1.99-4.2,1.37-6.09,10.68-6,18.16-14.86,21.91-26.67,10.77-33.85-9.74-65.07-46.34-69.54-26.28-3.2-52.75-.64-79.12-1.38-3.73-.11-3.45,2.1-3.45,4.54,.01,45.48,.05,90.97-.07,136.45-.01,3.73,1.14,4.7,4.73,4.63,10.51-.22,21.04-.24,31.55,0,3.79,.08,5.42-.71,5.13-4.9-.38-5.55-.24-11.15-.05-16.72,.18-5.52-2.41-12.71,1.04-16.08,3.43-3.34,10.63-.51,16.12-1.08,3.92-.41,6.23,1.11,8.35,4.32,6.84,10.39,13.99,20.57,21.01,30.84,1.34,1.97,2.56,3.64,5.5,3.61,13.27-.17,26.55-.07,41.1-.07-10.09-14.72-19.33-28.36-28.78-41.86Zm-15.69-48.91c-.55,11.09-7.42,18.67-19.1,19.7-8.74,.78-17.59,.25-26.38,.46-3.25,.09-3.25-1.82-3.23-4.12,.05-5.8,.02-11.59,.02-17.38s.01-11.58-.01-17.37c0-2-.13-3.95,2.84-3.82,9.41,.41,18.9-.98,28.25,.91,11.97,2.42,18.18,10.14,17.61,21.62Z"/><path class="cls-4" d="M508.62,164.2c-10.41-30.99-40.33-50.86-76.62-50.71-2.58,0-5.16-.15-7.72,.04-2.99,.23-5.99,.57-8.93,1.16-30.37,6.11-52.66,22.37-61.1,52.94-8.41,30.48-1.12,57.62,23.73,78.23,20.22,16.77,44.16,20.63,69.71,16.91,47.32-6.89,76.12-53.39,60.93-98.57Zm-76.67,65.82c-22.64,.04-39.2-17.35-39.24-41.21-.03-23.95,16.23-41.24,38.99-41.45,22.43-.21,39.27,17.42,39.35,41.2,.07,23.74-16.59,41.41-39.1,41.46Z"/><path class="cls-4" d="M1173.22,133.17c-20.69-18.27-45.6-22.55-72.3-18.5-37.48,5.69-64.06,36.33-64.12,73.83-.06,31.65,17.58,57.65,47.12,69.34,18.34,7.26,37.26,8.39,56.2,3.42,28.5-7.48,48.4-24.74,55.53-53.99,7-28.76,.01-54.27-22.43-74.1Zm-55.67,96.85c-22.87,.08-39.44-17.56-39.28-41.81,.15-23.79,17.06-41.23,39.58-40.84,22.67,.38,39.04,18.04,38.74,41.79-.3,23.58-16.72,40.77-39.04,40.86Z"/><path class="cls-4" d="M1349.48,132.93c-20.75-18.18-45.71-22.38-72.38-18.2-37.54,5.9-63.82,36.55-63.76,74.13,.05,31.05,17.45,57.02,46.25,68.67,18.48,7.48,37.59,8.76,56.8,3.79,28.54-7.39,48.5-24.58,55.73-53.78,7.17-28.99,.11-54.69-22.64-74.61Zm-55.39,97.09c-22.87,.08-39.44-17.56-39.28-41.81,.15-23.79,17.06-41.23,39.58-40.84,22.68,.38,39.04,18.04,38.74,41.79-.3,23.58-16.72,40.77-39.04,40.86Z"/><path class="cls-3" d="M332.89,532.36c.87-41.01-15.03-73.63-47.95-97.96-5-3.69-10.01-7.41-14.69-11.49-25.27-22.03-30.44-49.81-21.33-80.63,8.18-27.67,24.75-49.66,49.18-65.43,2.83-1.83,5.63-3.88,9.46-4.48-.45,7.83-1.13,15.46-1.3,23.1-.76,34.59,9.05,65.73,32.17,91.76,11.14,12.54,16.14,27.06,17.96,43,3.84,33.76-2.52,65.66-18.76,95.54-1.28,2.35-2.11,5.14-4.75,6.57Z"/><path class="cls-4" d="M670.03,164.05c0,13.08,.54,26.19-.1,39.25-1.78,36.03-24.47,58.49-60.62,60.58-10.98,.64-21.88,.03-32.52-3.03-26.42-7.61-42.49-28.28-43.35-57.9-.8-27.65-.21-55.34-.34-83.02-.01-2.99,.76-4.13,3.94-4.09,11.16,.17,22.33,.25,33.48-.03,4.65-.12,3.87,2.72,3.87,5.42,0,24.67,.03,49.34-.01,74.01-.01,6.27,.67,12.44,2.77,18.34,3.86,10.83,12.55,16.45,25.03,16.43,12.5-.01,21.07-5.63,24.91-16.57,2.08-5.92,2.74-12.08,2.73-18.35-.04-24.46,.14-48.91-.14-73.37-.06-4.92,1.33-6.13,6.07-5.94,9.86,.38,19.75,.31,29.61,.02,4.05-.12,5.07,1.24,5.02,5.11-.2,14.37-.08,28.75-.08,43.12-.09,0-.18,0-.26,0Z"/><path class="cls-4" d="M1627.42,122.88c-10.08-4.64-20.8-6.76-31.82-6.86-21.67-.19-43.35,.06-65.01-.17-4.32-.04-5.32,1.31-5.29,5.42,.19,22.51,.09,45.03,.09,67.55s.07,45.03-.07,67.55c-.03,3.69,.57,5.31,4.83,5.19,10.72-.33,21.45-.23,32.18-.04,3.35,.06,4.45-.91,4.37-4.33-.22-9.43,.28-18.88-.21-28.29-.28-5.34,1.67-6.25,6.47-6.2,14.12,.12,28.3,.98,42.26-2.48,24.02-5.95,39.41-22.51,41.45-44.97,2.16-23.67-8.49-42.82-29.25-52.37Zm-29.1,66.76c-9.53,2.03-19.21,.53-28.81,.98-2.94,.14-2.9-1.69-2.89-3.73,.03-5.99,.01-11.98,.01-17.97,0-.22-.02-.43,0-.64,.42-6.55-2.85-15.51,1.32-18.98,3.98-3.3,12.62-1.03,19.22-1.13,3.63-.06,7.24,.08,10.84,.88,11.44,2.55,17.35,9.45,17.34,20.53-.02,10.68-5.84,17.67-17.03,20.06Z"/><path class="cls-4" d="M912,188.03c0-22.31,.11-44.63-.1-66.94-.04-4.26,1.22-5.33,5.38-5.31,34.56,.16,69.12,.16,103.69,0,4.18-.02,5.68,1.04,5.46,5.35-.33,6.63-.41,13.32,.01,19.94,.34,5.24-1.18,7-6.69,6.91-20.17-.33-40.36,.02-60.53-.24-4.72-.06-6.44,1.01-6.1,5.97,.46,6.62,.46,13.32,0,19.94-.35,5.17,.9,6.95,6.51,6.82,17.38-.41,34.78-.02,52.16-.25,4.33-.06,6.11,.86,5.83,5.58-.41,7.06-.35,14.17-.01,21.23,.21,4.32-1.31,5.42-5.47,5.37-17.6-.21-35.21,.14-52.81-.23-5.32-.11-6.34,1.67-6.22,6.5,.32,12.44-.12,24.89,.22,37.33,.13,4.69-1.43,5.7-5.8,5.56-9.86-.32-19.76-.37-29.62,.01-4.76,.18-6.13-1.04-6.07-5.95,.29-22.52,.13-45.06,.13-67.58Z"/><path class="cls-4" d="M202.83,115.93c13.56,0,26.99,.05,40.42-.03,3.19-.02,3.69,2.61,4.81,4.48,9.4,15.6,18.7,31.26,28.04,46.9,1.09,1.82,2.25,3.59,3.85,6.13,8.23-13.78,17.12-26.46,23.69-40.25,6.52-13.7,15.19-20.22,30.64-17.42,6.14,1.11,12.66,.18,19.94,.18-2.74,4.68-4.95,8.52-7.22,12.33-15.16,25.39-30.28,50.81-45.55,76.14-2.08,3.45-2.96,6.88-2.9,10.89,.17,13.73-.07,27.46,.15,41.18,.06,3.84-.8,5.22-4.93,5.1-10.51-.31-21.04-.31-31.54,0-4.12,.12-4.99-1.26-4.93-5.1,.22-13.94-.02-27.89,.15-41.83,.05-4.01-.85-7.43-2.93-10.87-16.38-27.16-32.63-54.4-48.88-81.63-1.06-1.78-2.68-3.33-2.81-6.2Z"/><path class="cls-4" d="M1445.16,115.91c19.96,0,39.92,.09,59.88-.08,3.98-.03,5.77,.78,5.54,5.24-.37,7.27-.32,14.59-.01,21.87,.17,4.18-1.11,5.57-5.38,5.46-11.15-.27-22.32,.13-33.47-.2-4.56-.13-5.72,1.27-5.69,5.74,.18,33.67-.04,67.35,.24,101.03,.04,5.45-1.43,6.86-6.73,6.6-9.21-.46-18.47-.46-27.67,0-5.45,.27-7.2-.94-7.14-6.86,.34-33.24,.05-66.49,.29-99.74,.04-5.23-1.13-7.03-6.63-6.79-10.5,.46-21.04-.13-31.54,.25-5.13,.18-7.36-.92-6.91-6.58,.52-6.61,.42-13.31,.02-19.93-.29-4.74,1.04-6.21,5.99-6.13,19.74,.3,39.49,.12,59.23,.12Z"/><path class="cls-4" d="M2119.05,115.91c19.53,0,39.07,.27,58.59-.16,5.94-.13,7.29,1.76,6.9,7.2-.45,6.4-.39,12.88-.01,19.29,.28,4.69-.97,6.39-5.98,6.2-10.72-.4-21.47,.15-32.18-.24-5.03-.18-6.46,1.2-6.42,6.34,.24,33.46,0,66.92,.26,100.38,.04,5.36-1.27,6.94-6.67,6.66-9.42-.48-18.9-.52-28.31,.01-5.66,.32-6.54-1.71-6.51-6.82,.23-33.25,0-66.49,.24-99.74,.04-5.16-.99-7.09-6.57-6.85-10.93,.47-21.89-.09-32.83,.24-4.65,.14-5.87-1.47-5.65-5.86,.34-6.63,.44-13.32-.02-19.94-.37-5.24,1.08-6.94,6.58-6.85,19.52,.34,39.06,.13,58.59,.13Z"/><path class="cls-5" d="M243.86,225.32c-7.22,8.08-14.86,13.2-22.91,17.62-30.55,16.76-63.25,25.02-98.16,23.51-17.9-.77-34.15-7.58-50.19-14.96-17.69-8.13-34.85-17.65-54.28-21.33-5.39-1.02-10.87-1.53-18.32-2.56,29.11-10.92,54.65-25.79,83.94-30.88,11.36-1.98,22.15-.67,32.65,3.92,8.3,3.63,15.74,8.74,23.33,13.55,18.48,11.7,38.83,15.41,60.29,14.22,14.09-.79,28.15-1.98,43.64-3.1Z"/><path class="cls-4" d="M1872.03,189c0,22.32-.14,44.64,.11,66.95,.05,4.63-1.33,5.74-5.76,5.6-10.3-.33-20.61-.24-30.91-.03-3.56,.07-4.77-.83-4.76-4.6,.13-45.5,.13-90.99,0-136.49-.01-3.76,1.19-4.67,4.76-4.6,10.3,.21,20.62,.3,30.91-.03,4.42-.14,5.81,.96,5.76,5.59-.25,22.53-.11,45.07-.11,67.6Z"/><path class="cls-3" d="M2255.86,275.36c-14.13-8.65-28.13-16.83-40.6-27.23-8.09-6.74-13.5-15.65-13.1-26.22,.9-23.63-9.23-42.21-24.59-58.84-2.28-2.47-4.83-4.8-6.27-8.79,13.26,2.45,24.01,8.89,34.28,16.3,23.56,17.01,37.21,39.73,40.12,68.87,1.18,11.77,4.09,23.2,10.13,33.61,.26,.45,.03,1.19,.03,2.31Z"/></svg>