<?xml version="1.0" encoding="utf-8"?>
<!-- Generator: Adobe Illustrator 27.0.0, SVG Export Plug-In . SVG Version: 6.00 Build 0)  -->
<svg version="1.1" id="Layer_1" xmlns="http://www.w3.org/2000/svg" xmlns:xlink="http://www.w3.org/1999/xlink" x="0px" y="0px"
	 viewBox="0 0 395 354" style="enable-background:new 0 0 395 354;" xml:space="preserve">
<style type="text/css">
	.st0{fill:#414141;}
</style>
<g>
	<path class="st0" d="M385.1,120.5c0,15.8,0,31.6,0,47.4c-2.2,3.2-3.8,6.9-6.6,9.3c-3.9,3.3-8.4,6-13,8.3
		c-5.2,2.6-10.8,4.5-16.9,6.9c0,14.7,0,29.6,0,44.5c3,1.7,6.3,3.4,9.5,5.4c6.1,3.9,9.1,9.4,8.9,16.9c-0.3,11.3-0.5,22.6,0,33.9
		c0.5,9.4-3.6,15.7-11.1,20.5c-8.7,5.6-18.3,9.1-28.2,11.9c-34.8,9.7-70.6,12.9-106.5,14.1c-25.2,0.8-50.4-0.1-75.5-2.7
		c-22.9-2.3-45.6-5.6-67.7-12.2c-10.1-3-19.9-6.6-28.4-13c-5.7-4.3-8.7-9.7-8.5-17.2c0.4-14.3,0.1-28.7,0.1-42.9
		c-3.5-2.4-7.4-4.7-10.9-7.4c-4.9-3.8-7.4-8.8-7.3-15.3c0.2-12.5,0.2-25,0-37.5c-0.1-5.6,1.9-10.3,6.3-13.5c3.9-2.8,8-5.4,12.4-7.3
		c5.6-2.4,11.5-4.1,17.6-6.3c0-14.8,0-29.7,0-44.9c-3-1.1-6.5-1.9-9.6-3.5c-6.8-3.5-13.6-7-19.9-11.2c-4.9-3.3-6.9-8.6-6.8-14.7
		c0.2-12.5,0.1-25,0-37.5c0-5.2,1.8-9.5,5.7-12.8c2.3-2,4.8-3.8,7.5-5.2c9.7-5.3,20.3-8.2,31-10.4c32.8-6.9,66-8.9,99.4-9.9
		c32.4-0.9,64.8,0.3,97.1,3.6c18.5,1.9,37,4.1,54.8,9.9c7.6,2.5,15,6.1,22.1,9.9c5,2.7,8.3,7.5,8.4,13.5c0.1,15.6,0,31.2,0,47
		c4.7,1.6,10.3,3.2,15.6,5.2C373.2,107,381.3,111.2,385.1,120.5z M186.1,81.3c20.2-1.3,40.5-2.2,60.6-4c21.6-1.9,43-5.4,63.7-12.1
		c7.7-2.5,15.1-5.9,22.2-9.8c5.5-3,5.3-6.3-0.2-9.2c-5.6-2.9-11.5-5.4-17.6-7.1c-28.9-8.1-58.6-10.6-88.4-12
		c-43.4-2-86.7-1.4-129.8,4.2c-17,2.2-34,5-50.1,11.3c-2.9,1.1-5.8,2.6-8.4,4.4c-3.6,2.5-3.6,4.5-0.3,7.2c1.8,1.5,3.8,2.8,5.9,3.9
		c11.6,6,24.1,9.2,36.8,12C115.2,77.9,150.5,80.5,186.1,81.3z M72,123.2c-0.2,0.3-0.3,0.6-0.5,0.9c1,1.1,1.8,2.4,3,3.2
		c2.9,1.9,5.9,3.8,9.1,5.2c13.4,6,27.6,9.2,42,12c26.2,5,52.7,7.4,79.3,8.1c42.8,1.1,85.2-1.3,127-11c11.9-2.8,23.8-5.9,34.5-12.2
		c2.5-1.5,4.2-4.1,6.3-6.2c-2.1-1.9-4-4.6-6.5-5.5c-8.9-3.4-18-6.1-27-9c-0.7-0.2-1.9,0.1-2.6,0.6c-13.8,8.2-29,12.1-44.5,15.5
		c-26.1,5.7-52.5,8.3-79.2,9.4c-42.1,1.8-84-0.2-125.6-7.9C82.3,125.3,77.2,124.2,72,123.2z M324.8,199.1c-0.1-0.3-0.2-0.6-0.2-0.8
		c-1,0.1-2,0.1-3,0.3c-21,4.1-42.1,6.3-63.4,7.6c-28.2,1.7-56.3,1.4-84.4-0.8c-25.6-2-51-5.5-75.8-12.7
		c-11.7-3.4-23.1-7.3-32.6-15.5c-0.6-0.5-1.8-0.9-2.5-0.6c-8,3-16.2,5.6-23.9,9.3c-5,2.4-5,5.4-0.2,8.2c5.8,3.3,11.8,6.5,18.1,8.5
		c33.7,11.1,68.7,14.6,104,16.2c29.6,1.4,59.1,0.4,88.6-2.8c20.6-2.3,41-5.7,60.9-11.8C315.2,202.7,320,200.8,324.8,199.1z
		 M54.1,256.8c-0.2,0.3-0.3,0.6-0.5,0.9c1.8,1.4,3.4,3.2,5.4,4.2c5.3,2.6,10.5,5.3,16.1,7.1c24.8,8.3,50.5,12,76.5,14.3
		c48.3,4.2,96.5,3.2,144.4-5.1c15.9-2.8,31.7-6.2,46.5-12.8c3.8-1.7,7.3-4.2,10.8-6.6c1.9-1.4,2.3-3.6,0-4.9
		c-4.2-2.5-8.6-4.7-13-6.9c-0.6-0.3-1.7,0.3-2.5,0.6c-8.5,3.6-16.8,8.2-25.6,10.8c-34,10.2-69,13.5-104.2,14.9
		c-28.2,1.1-56.3,0.2-84.3-2.8c-21.6-2.3-42.9-5.7-63.8-11.9C57.8,257.9,56,257.3,54.1,256.8z M215.9,92.6c-8.1,0-15.9,0-23.6,0
		c0,10.4,0,20.2,0,29.6c8,0,15.7,0,23.6,0C215.9,112,215.9,102.2,215.9,92.6z M179.9,92.5c-8.1,0-15.9,0-23.7,0c0,9.8,0,19.6,0,29.8
		c8.1,0,15.9,0,23.7,0C179.9,112.4,179.9,102.8,179.9,92.5z M210.4,297.7c0,10.4,0,20.2,0,29.5c8.1,0,15.9,0,23.7,0
		c0-10.3,0-20,0-29.5C226,297.7,218.3,297.7,210.4,297.7z M197.7,327.3c0-9.8,0-19.6,0-29.7c-8,0-15.8,0-23.7,0c0,9.8,0,19.5,0,29.7
		C181.9,327.3,189.7,327.3,197.7,327.3z M192.2,231.3c0,10.3,0,20.1,0,29.6c8,0,15.8,0,23.6,0c0-10.3,0-20.2,0-29.6
		C207.8,231.3,200.1,231.3,192.2,231.3z M179.8,231.3c-8,0-15.8,0-23.8,0c0,9.7,0,19.4,0,29.7c7.9,0,15.7,0,23.8,0
		C179.8,251.4,179.8,241.7,179.8,231.3z M228.3,164.8c0,10.4,0,20.1,0,29.7c8,0,15.8,0,23.7,0c0-10.3,0-20.1,0-29.7
		C244.1,164.8,236.4,164.8,228.3,164.8z M215.9,164.8c-8.1,0-15.9,0-23.8,0c0,9.8,0,19.5,0,29.8c8,0,15.8,0,23.8,0
		C215.9,185,215.9,175.2,215.9,164.8z M125.8,228.6c0,10.3,0,20,0,30c6,0.5,11.8,1,17.8,1.5c0-10.2,0-19.9,0-29.9
		C137.7,229.6,131.8,229.1,125.8,228.6z M162,162.2c0,10.2,0,19.9,0,30c6,0.5,11.8,1,17.8,1.5c0-10.3,0-20.1,0-30
		C173.8,163.2,168,162.7,162,162.2z M246.1,119.7c0-10.1,0-19.8,0-29.9c-6.1,0.5-11.9,0.9-17.8,1.4c0,10.2,0,20,0,30.1
		C234.3,120.8,240.1,120.3,246.1,119.7z M228.4,260.1c6-0.5,11.9-1,17.7-1.5c0-10.1,0-19.9,0-30c-6.1,0.5-11.9,1-17.7,1.5
		C228.4,240.2,228.4,250,228.4,260.1z M143.8,121.3c0-9.7,0-18.9-0.1-28c0-0.8-1.2-2.1-1.9-2.1c-5.2-0.5-10.5-0.9-15.9-1.2
		c0,10.1,0,19.9,0,29.8C131.8,120.2,137.5,120.8,143.8,121.3z M264.5,163.7c0,10,0,19.7,0,30c6.1-0.5,12-1,17.8-1.5
		c0-10.3,0-20,0-29.9C276.3,162.8,270.5,163.2,264.5,163.7z M113.4,88.5c-6-0.8-11.8-1.6-17.8-2.5c0,10,0,19.6,0,29.6
		c5.9,0.9,11.8,1.8,17.8,2.7C113.4,108.2,113.4,98.5,113.4,88.5z M276.6,293.7c0,10,0,19.7,0,29.8c6.1-0.9,12-1.8,17.7-2.7
		c0-10.1,0-19.8,0-29.6C288.3,292,282.5,292.9,276.6,293.7z M131.7,323.6c0-9.6,0-18.8-0.1-27.9c0-0.7-1-2-1.6-2.1
		c-5.4-0.9-10.8-1.6-16.3-2.3c0,10,0,19.6,0,29.5C119.5,321.7,125.3,322.6,131.7,323.6z M294.8,190.7c5.2-0.8,10.2-1.7,15.2-2.3
		c2.3-0.3,2.9-1.3,2.9-3.4c-0.1-7.3,0-14.6,0-21.9c0-1.5,0-2.9,0-4.8c-6.4,0.9-12.2,1.7-18,2.5C294.8,170.9,294.8,180.6,294.8,190.7
		z M95.4,224.8c0,9.6,0,18.7,0.1,27.7c0,0.7,1,2,1.7,2.1c5.3,1,10.6,1.7,16.2,2.5c0-10,0-19.8,0-29.8
		C107.5,226.5,101.8,225.7,95.4,224.8z M288.9,222.6c0,9.8,0,19.5,0,29.5c6.2-1.5,11.9-3,17.6-4.4c0-9.9,0-19.3,0-29
		C300.5,219.9,294.7,221.3,288.9,222.6z M119.6,185.7c0-9.7,0-18.7,0-27.8c0-0.6-0.6-1.7-1.1-1.9c-5.5-1.3-11.1-2.5-16.7-3.8
		c0,9.9,0,19.4,0,29C107.6,182.7,113.3,184.1,119.6,185.7z M83.3,284.9c0,9.5,0,18.4,0.1,27.4c0,0.7,0.8,1.8,1.4,2
		c5.4,1.5,10.9,2.8,16.5,4.2c0-10,0-19.6,0-29.5C95.5,287.7,89.7,286.3,83.3,284.9z M306.7,318.5c5.7-1.5,11.1-2.7,16.4-4.2
		c0.7-0.2,1.6-1.2,1.6-1.8c0.1-9,0.1-18,0.1-27.5c-6.3,1.5-12.2,2.8-18.1,4.1C306.7,298.8,306.7,308.3,306.7,318.5z M288.7,113.2
		c5.9-1.5,11.2-2.8,16.5-4.2c0.6-0.2,1.3-1.1,1.3-1.7c0.1-9.1,0.1-18.3,0.1-27.7c-6.3,1.5-12.2,2.9-17.9,4.2
		C288.7,93.7,288.7,103.1,288.7,113.2z M161.6,326.5c0-10.4,0-20.1,0-30.1c-5.9-0.5-11.7-0.9-17.6-1.4c0,10.2,0,19.9,0,29.9
		C149.9,325.5,155.5,326,161.6,326.5z M246.5,326.5c6-0.5,11.8-1,17.6-1.5c0-10.2,0-19.8,0-29.9c-6,0.5-11.8,1-17.6,1.4
		C246.5,306.6,246.5,316.3,246.5,326.5z M258.6,227.3c0,10.1,0,19.8,0,29.8c5.5-0.8,10.8-1.5,16.1-2.6c0.7-0.1,1.6-1.8,1.6-2.8
		c0.2-4.1,0.1-8.2,0.1-12.3c0-4.8,0-9.5,0-14.6C270.2,225.7,264.5,226.5,258.6,227.3z M131.7,158.5c0,9.6,0,18.9,0.1,28.2
		c0,0.5,0.9,1.5,1.5,1.6c5.3,0.9,10.6,1.7,16.2,2.5c0-10.2,0-20,0-29.9C143.5,160.1,137.9,159.3,131.7,158.5z M276.2,115.6
		c0-10.1,0-19.7,0-29.5c-6,0.9-11.8,1.7-17.5,2.5c0,10,0,19.8,0,29.8C264.7,117.4,270.4,116.5,276.2,115.6z M52.2,105
		c0.4-0.3,0.7-0.7,1-1c0-8.8,0-17.6,0-26.4c0-0.7-0.5-1.8-1-2c-5.6-2.5-11.3-4.9-17.1-7.4c0,8-0.1,15.9,0.1,23.8
		c0,1.5,1.1,3.6,2.3,4.4C42.3,99.5,47.3,102.2,52.2,105z M342.6,152.2c-6.2,1.4-11.8,2.7-17.5,4c0,9.9,0,19.5,0,29.4
		c6.1-1.5,11.9-3,17.5-4.4C342.6,171.4,342.6,162,342.6,152.2z M354.9,177.9c5.7-3.2,10.5-5.7,15.1-8.6c1.4-0.9,2.8-2.9,2.9-4.5
		c0.3-8,0.1-16.1,0.1-24.2c-5.8,2.5-11.2,4.8-16.6,7.3c-0.7,0.3-1.5,1.5-1.5,2.3C354.8,159,354.9,167.8,354.9,177.9z M35.1,207
		c0,8.1,0,16.1,0,24.1c0,0.9,0.4,2,0.9,2.6c4.5,5.1,10.5,7.5,17.2,9.6c0-9.4,0-18.2-0.1-27c0-0.7-1-1.8-1.8-2.2
		C46.1,211.7,40.9,209.5,35.1,207z M65.3,218.5c0,9.4,0,18.5,0.1,27.5c0,0.7,1,1.8,1.8,2c5.2,1.4,10.4,2.7,15.8,4
		c0-10.1,0-19.8,0-29.5C77.1,221.2,71.4,219.9,65.3,218.5z M65.3,79.7c0,9.5,0,18.5,0,27.5c0,0.6,0.6,1.7,1.2,1.8
		c5.4,1.5,10.8,2.8,16.6,4.2c0-10.1,0-19.7,0-29.4C77.3,82.5,71.6,81.2,65.3,79.7z M318.7,244.2c5.7-3.4,10.8-6,15.4-9.3
		c1.5-1,2.5-3.7,2.6-5.6c0.3-6,0.1-12,0.1-18c0-1.4,0-2.9,0-4.3c-5.8,2.5-11.1,4.8-16.3,7.1c-0.8,0.3-1.8,1.4-1.8,2.1
		C318.6,225.1,318.7,234,318.7,244.2z M71.2,140.6c0,7.9-0.1,15.6,0.1,23.2c0,1.2,0.5,2.6,1.3,3.5c4.5,4.9,10.4,7.2,16.8,9.7
		c0-9.3,0-18-0.1-26.7c0-0.8-0.7-2-1.4-2.4C82.6,145.4,77.1,143.1,71.2,140.6z M336.9,68.2c-5.9,2.5-11.4,4.8-16.8,7.3
		c-0.6,0.3-1.3,1.4-1.3,2.1c-0.1,8.8-0.1,17.6-0.1,26.9c6.4-2.3,12-5.1,16.8-9.3c0.8-0.7,1.3-2.1,1.3-3.1
		C336.9,84.2,336.9,76.4,336.9,68.2z M71.2,309.9c0-9.5,0-18.3,0-27.1c0-0.8-0.6-1.9-1.2-2.2c-5.4-2.4-10.9-4.7-16.7-7.2
		c0,5.5,0.7,11-0.1,16.2c-1.6,9.9,3.6,14.5,11.7,17.7C66.7,308,68.7,308.8,71.2,309.9z M354.8,273.1c-3,1.5-5.4,2.8-7.8,3.9
		c-3.3,1.6-8,2.3-9.6,5c-1.7,2.7-0.4,7.3-0.5,11c0,5.5,0,10.9,0,17.7c5.8-3.3,10.7-5.9,15.4-8.9c1.2-0.8,2.4-2.6,2.5-4
		C354.9,289.7,354.8,281.6,354.8,273.1z"/>
</g>
</svg>
