<?xml version="1.0" encoding="UTF-8"?><svg id="Layer_1" xmlns="http://www.w3.org/2000/svg" xmlns:xlink="http://www.w3.org/1999/xlink" viewBox="0 0 943.48 975.52"><defs><style>.cls-1{fill:#fff;}.cls-2{fill:url(#linear-gradient);}</style><linearGradient id="linear-gradient" x1="0" y1="509.11" x2="943.48" y2="509.11" gradientTransform="matrix(1, 0, 0, 1, 0, 0)" gradientUnits="userSpaceOnUse"><stop offset="0" stop-color="#f07c27"/><stop offset=".37" stop-color="#ed6624"/><stop offset="1" stop-color="#fcbb62"/></linearGradient></defs><ellipse class="cls-2" cx="471.74" cy="509.11" rx="471.74" ry="466.41"/><path class="cls-1" d="M371.56,122.56l4.18,2.51,.46-.26c7.93-6.76,17.63-13.52,28.61-18.51,6.5-2.65,13.52-4.08,20.57-4.15-3.12-.94-5.21-1.3-5.21-1.3-4.55-.95-9.24-1.43-13.98-1.43-10.66,0-21.1,2.49-30.45,7.26-3.23-1.65-7.44-3.1-12.1-4.39-20.73-5.73-41.63,.97-47.51,22.21,8.46-5.98,18.56-9.19,29.19-9.19,9.32,0,18.4,2.49,26.24,7.26Z"/><path class="cls-1" d="M337.15,376.17c3.28-3.83,10.47-12.02,21.97-18.75,25.45-14.9,52-10.84,58.83-9.69,6.17,1.03,19.83,3.61,34.32,13.33,6.34,4.26,19.09,14.11,26.97,31.51,4.4,9.71,5.85,18.61,6.31,24.9,2.88-11.42,8.61-27.73,20.66-44.29,9.64-13.25,19.4-21.3,24.51-25.45,71.96-58.41,156.29-46.11,156.29-46.11,16.41,2.39,45.44,8.87,77.17,29.46-.19-.32-.39-.65-.59-.97-38.15-62.24-119.62-85.24-185.02-51.87-33.64,17.16-62.78,40.25-85.57,61.69l-.08,.08-7.36,7.28-7.28-7.28c-23.52-23.17-54.65-35.91-87.72-35.91h-1.25c-35.08,.34-67.7,14.81-91.22,40.77,0,0,0,.02,0,.02,3.85,20.11,12.81,39.72,23.27,57.1,3.02-7.29,7.89-16.56,15.82-25.82Z"/><path class="cls-1" d="M460.92,294.01l13.33,8.69,1.45-.91c25.31-23.37,56.24-46.72,91.27-63.95,20.74-9.16,43.11-14.11,65.61-14.35-9.96-3.24-16.61-4.51-16.61-4.51-14.52-3.3-29.47-4.94-44.59-4.94-34,0-67.31,8.6-97.12,25.07-10.32-5.7-23.72-10.71-38.61-15.17-66.12-19.81-132.8,3.35-151.54,76.75,26.99-20.68,59.2-31.75,93.11-31.75,29.73,0,58.69,8.6,83.71,25.07Z"/><path class="cls-1" d="M295.2,661.59c-3.08-5.16-7.33-12.16-14.54-17.84-6.67-5.25-12.49-6.51-19.48-8.07-5.85-1.31-11.86-2.65-19.48-1.15-4.77,.94-13.35,3.62-22.72,12.68-4.2,4.05-12.64,13.43-17.85,29.97-2.91,9.24-3.87,17.7-4.18,23.69-1.9-10.86-5.7-26.38-13.68-42.13-2.54-5.01-7.83-14.66-16.23-24.21-6.76-7.69-13.38-12.87-20.29-17.29-25.13-16.09-50.67-32.45-83.19-26.58-10.75,1.94-29.93,7.69-51.09,28.02,.13-.31,.26-.62,.39-.92,25.26-59.2,79.2-81.08,122.5-49.34,22.27,16.33,41.57,38.29,56.65,58.68l.06,.08,4.88,6.93,4.82-6.93c15.57-22.04,36.19-34.16,58.08-34.16h.83c23.22,.33,44.82,14.09,60.4,38.78,0,0,0,.02,0,.02-2.55,19.13-8.48,37.78-15.41,54.32-2-6.93-5.22-15.75-10.47-24.56Z"/><path class="cls-1" d="M644.52,680.9c3.06-5.16,7.29-12.16,14.46-17.84,6.63-5.25,12.42-6.51,19.37-8.07,5.82-1.31,11.79-2.65,19.37-1.15,4.75,.94,13.28,3.62,22.6,12.68,4.18,4.05,12.57,13.43,17.75,29.97,2.9,9.24,3.85,17.7,4.15,23.69,1.89-10.86,5.67-26.38,13.6-42.13,2.52-5.01,7.79-14.66,16.14-24.21,6.72-7.69,13.31-12.87,20.17-17.29,24.99-16.09,50.38-32.45,82.73-26.58,10.69,1.94,29.77,7.69,50.81,28.02-.13-.31-.26-.62-.39-.92-25.12-59.2-78.76-81.08-121.82-49.34-22.15,16.33-41.33,38.29-56.34,58.68l-.06,.08-4.85,6.93-4.79-6.93c-15.49-22.04-35.98-34.16-57.75-34.16h-.83c-23.09,.33-44.57,14.09-60.06,38.78,0,0,0,.02,0,.02,2.54,19.13,8.43,37.78,15.32,54.32,1.99-6.93,5.19-15.75,10.41-24.56Z"/><path class="cls-1" d="M729.92,352.99c-5.59-3.34-11.32-6.09-17.08-7.93,41.77,67.15,34.25,160.57-21.87,220.59l-139.15,149.14c-.34,.37-.68,.64-1.02,1.01l-.09,.09c-15.56,15.92-38.28,36.27-66.29,54.54-17.21,10.94-36.4,17.58-56.22,19.36l13.34,4.42c13.16,4.03,26.99,6.22,41,6.22,39.89,0,77.31-16.65,105.5-46.85l139.24-149.04c29.54-31.64,48.71-70.42,57.54-111.23,11.85-54.78-9.05-112.92-54.9-140.32Z"/><path class="cls-1" d="M474.17,734.27c11.05-6.92,25.84-19.66,29.92-23.18,8.88-7.67,16.64-15.11,23.13-21.74,.09-.18,.25-.27,.43-.45l139.24-149.04v-.09c24.86-26.62,37.76-61.55,38.51-96.43,.35-16.12,1.39-65.25-34.4-91.09-30.45-21.99-67.27-10.32-79.5-6.41-45.11,14.43-67.15,53.82-72.56,64.2,23.97-31.55,57.76-47.5,88.34-40.55,24.98,5.68,49.92,26.99,56.79,54.07,22.44,88.45-142.2,204.85-172.19,226-55.85,39.4-107.12,62.17-141.71,75.21h.01c28.61,30.65,87.21,32.57,124.02,9.52Z"/><path class="cls-1" d="M274.35,565.91c-.06-.07-6.57-7.4-7.34-8.32-29.98-35.13-70.73-92.5-88.58-161.58-13.24,72.83,6.75,151.97,59.45,208.51l51.13,54.69c33.37,33.04,46.78,36.52,93.24,22.25l-107.9-115.57Z"/><path class="cls-1" d="M297.86,539.3l.43,.45,117.37,125.71c16.49-9.97,30.92-21.77,42.28-32.3l-122.92-131.66h0c-31.35-35.41-83.46-105.86-79.96-181.06,1.2-26.66,9.63-52.18,24.94-76.36l-.08,.05c-2.12,1.28-4.25,2.65-6.37,4.11-55.68,38.34-75.07,116.36-47.39,180.75,20.25,47.12,50.12,85.95,71.7,110.29Z"/><path class="cls-1" d="M337.54,182.38c-1.05-1.23-3.35-3.85-7.03-6-8.14-4.77-16.64-3.47-18.82-3.1-1.97,.33-6.35,1.15-10.98,4.27-2.03,1.36-6.11,4.52-8.63,10.08-1.41,3.11-1.87,5.95-2.02,7.97-.92-3.65-2.76-8.87-6.61-14.17-3.08-4.24-6.21-6.82-7.84-8.14-23.02-18.69-50.01-14.75-50.01-14.75-5.25,.77-14.54,2.84-24.69,9.43,.06-.1,.13-.21,.19-.31,12.21-19.91,38.27-27.27,59.2-16.59,10.76,5.49,20.09,12.88,27.38,19.74l.03,.03,2.36,2.33,2.33-2.33c7.53-7.41,17.49-11.49,28.07-11.49h.4c11.22,.11,21.66,4.74,29.19,13.05h0c-1.23,6.44-4.1,12.72-7.45,18.28-.97-2.33-2.52-5.3-5.06-8.26Z"/><g><path class="cls-1" d="M234.2,752.4c5.8-5.86,13.17-8.78,22.12-8.78,11.98,0,20.74,3.93,26.27,11.78,3.06,4.41,4.7,8.83,4.93,13.27h-15.04c-.96-3.41-2.18-5.99-3.68-7.72-2.68-3.09-6.65-4.63-11.91-4.63s-9.58,2.18-12.67,6.54c-3.09,4.36-4.64,10.53-4.64,18.51s1.63,13.96,4.9,17.93c3.26,3.97,7.41,5.96,12.44,5.96s9.09-1.71,11.8-5.12c1.5-1.83,2.74-4.59,3.72-8.25h14.94c-1.29,7.76-4.58,14.06-9.88,18.92-5.3,4.86-12.08,7.29-20.36,7.29-10.24,0-18.29-3.28-24.15-9.85-5.86-6.6-8.79-15.64-8.79-27.13,0-12.42,3.33-21.99,10-28.72Z"/><path class="cls-1" d="M354.23,810.97c-5.27,5.37-12.9,8.05-22.87,8.05s-17.6-2.68-22.87-8.05c-7.07-6.59-10.61-16.08-10.61-28.47s3.54-22.13,10.61-28.47c5.27-5.37,12.9-8.05,22.87-8.05s17.6,2.68,22.87,8.05c7.04,6.34,10.56,15.83,10.56,28.47s-3.52,21.88-10.56,28.47Zm-9.12-10.49c3.39-4.21,5.09-10.21,5.09-17.98s-1.7-13.73-5.09-17.96-7.98-6.34-13.76-6.34-10.39,2.11-13.83,6.32c-3.44,4.21-5.16,10.21-5.16,17.98s1.72,13.77,5.16,17.98c3.44,4.21,8.05,6.32,13.83,6.32s10.36-2.11,13.76-6.32Z"/><path class="cls-1" d="M368.31,828.61c.87-2.04,2.92-4.2,6.15-6.48,2.8-1.98,4.62-3.4,5.44-4.26,1.27-1.34,1.9-2.8,1.9-4.39,0-1.29-.36-2.37-1.09-3.23-.73-.86-1.76-1.29-3.12-1.29-1.85,0-3.11,.68-3.78,2.05-.38,.79-.61,2.04-.68,3.76h-5.91c.1-2.6,.58-4.71,1.43-6.31,1.62-3.05,4.51-4.58,8.65-4.58,3.28,0,5.88,.9,7.82,2.69,1.94,1.79,2.91,4.17,2.91,7.12,0,2.27-.68,4.28-2.05,6.04-.9,1.17-2.37,2.47-4.43,3.9l-2.44,1.71c-1.53,1.07-2.57,1.84-3.13,2.32-.56,.48-1.04,1.03-1.42,1.67h13.51v5.3h-21.2c.06-2.2,.53-4.2,1.43-6.02Z"/></g><g><path class="cls-1" d="M364.75,901.14c-1.36,.67-4.42,1.39-8.41,1.39-11.32,0-17.15-6.96-17.15-16.19,0-11.05,7.97-17.2,17.88-17.2,3.84,0,6.75,.77,8.07,1.44l-1.51,5.81c-1.51-.62-3.6-1.2-6.22-1.2-5.88,0-10.45,3.51-10.45,10.71,0,6.48,3.89,10.57,10.49,10.57,2.24,0,4.71-.48,6.17-1.06l1.12,5.72Z"/><path class="cls-1" d="M374.13,892.64c.24,3.03,3.26,4.47,6.7,4.47,2.53,0,4.57-.34,6.56-.96l.97,4.95c-2.43,.96-5.39,1.44-8.6,1.44-8.06,0-12.68-4.61-12.68-11.96,0-5.96,3.74-12.54,12-12.54,7.68,0,10.59,5.91,10.59,11.72,0,1.25-.15,2.35-.24,2.88h-15.3Zm8.7-5c0-1.78-.78-4.76-4.18-4.76-3.11,0-4.37,2.79-4.57,4.76h8.75Z"/><path class="cls-1" d="M394.09,886.3c0-3.46-.1-5.72-.19-7.73h6.36l.24,4.32h.19c1.21-3.41,4.13-4.85,6.41-4.85,.68,0,1.02,0,1.55,.1v6.87c-.53-.1-1.17-.19-1.99-.19-2.72,0-4.57,1.44-5.05,3.7-.1,.48-.15,1.06-.15,1.63v11.91h-7.38v-15.75Z"/><path class="cls-1" d="M421.83,871.84v6.72h5.3v5.38h-5.3v8.5c0,2.83,.68,4.13,2.92,4.13,.92,0,1.65-.1,2.19-.19l.05,5.52c-.97,.38-2.72,.62-4.81,.62-2.38,0-4.37-.82-5.54-2.02-1.36-1.39-2.04-3.65-2.04-6.96v-9.61h-3.16v-5.38h3.16v-5.09l7.24-1.63Z"/><path class="cls-1" d="M439.03,872.03c0,2.02-1.55,3.65-3.98,3.65s-3.89-1.63-3.84-3.65c-.05-2.11,1.51-3.7,3.89-3.7s3.89,1.59,3.94,3.7Zm-7.63,30.02v-23.49h7.38v23.49h-7.38Z"/><path class="cls-1" d="M445.54,902.06v-18.11h-3.11v-5.38h3.11v-1.01c0-6.48,5.1-10.13,12.44-10.13,2.53,0,5.54,.58,7,1.44l-1.41,5.52c-1.17-.62-3.06-1.2-5.39-1.2-3.89,0-5.25,1.97-5.25,4.56v.82h14.43v23.49h-7.38v-18.11h-7v18.11h-7.43Z"/><path class="cls-1" d="M491.11,901.48c-1.31,.58-3.79,1.06-6.61,1.06-7.68,0-12.58-4.61-12.58-12.01,0-6.87,4.76-12.49,13.6-12.49,1.94,0,4.08,.34,5.64,.91l-1.17,5.43c-.87-.38-2.19-.72-4.13-.72-3.89,0-6.41,2.74-6.36,6.58,0,4.32,2.92,6.58,6.51,6.58,1.75,0,3.11-.29,4.23-.72l.87,5.38Z"/><path class="cls-1" d="M500.34,892.64c.24,3.03,3.25,4.47,6.7,4.47,2.53,0,4.57-.34,6.56-.96l.97,4.95c-2.43,.96-5.39,1.44-8.6,1.44-8.07,0-12.68-4.61-12.68-11.96,0-5.96,3.74-12.54,12-12.54,7.68,0,10.59,5.91,10.59,11.72,0,1.25-.15,2.35-.24,2.88h-15.3Zm8.7-5c0-1.78-.78-4.76-4.18-4.76-3.11,0-4.37,2.79-4.57,4.76h8.75Z"/><path class="cls-1" d="M520.3,886.3c0-3.46-.1-5.72-.19-7.73h6.37l.24,4.32h.19c1.21-3.41,4.13-4.85,6.41-4.85,.68,0,1.02,0,1.55,.1v6.87c-.53-.1-1.17-.19-1.99-.19-2.72,0-4.57,1.44-5.05,3.7-.1,.48-.15,1.06-.15,1.63v11.91h-7.38v-15.75Z"/><path class="cls-1" d="M544.06,892.64c.24,3.03,3.25,4.47,6.7,4.47,2.53,0,4.57-.34,6.56-.96l.97,4.95c-2.43,.96-5.39,1.44-8.6,1.44-8.06,0-12.68-4.61-12.68-11.96,0-5.96,3.74-12.54,12-12.54,7.68,0,10.59,5.91,10.59,11.72,0,1.25-.15,2.35-.24,2.88h-15.3Zm8.7-5c0-1.78-.78-4.76-4.18-4.76-3.11,0-4.37,2.79-4.57,4.76h8.75Z"/><path class="cls-1" d="M572.28,871.84v6.72h5.3v5.38h-5.3v8.5c0,2.83,.68,4.13,2.92,4.13,.92,0,1.65-.1,2.19-.19l.05,5.52c-.97,.38-2.72,.62-4.81,.62-2.38,0-4.37-.82-5.54-2.02-1.36-1.39-2.04-3.65-2.04-6.96v-9.61h-3.16v-5.38h3.16v-5.09l7.24-1.63Z"/></g></svg>